<?xml version="1.0" encoding="UTF-8" standalone="no"?><svg xmlns="http://www.w3.org/2000/svg" xmlns:xlink="http://www.w3.org/1999/xlink" contentScriptType="application/ecmascript" contentStyleType="text/css" height="621px" preserveAspectRatio="none" style="width:929px;height:621px;" version="1.1" viewBox="0 0 929 621" width="929px" zoomAndPan="magnify"><defs><filter height="300%" id="frargyvab3z4m" width="300%" x="-1" y="-1"><feGaussianBlur result="blurOut" stdDeviation="2.0"/><feColorMatrix in="blurOut" result="blurOut2" type="matrix" values="0 0 0 0 0 0 0 0 0 0 0 0 0 0 0 0 0 0 .4 0"/><feOffset dx="4.0" dy="4.0" in="blurOut2" result="blurOut3"/><feBlend in="SourceGraphic" in2="blurOut3" mode="normal"/></filter></defs><g><!--MD5=[7f8134b78695bef3e790eae6add485b3]
cluster External Dependencies--><polygon fill="#FFFFFF" filter="url(#frargyvab3z4m)" points="709,24,897,24,904,46.2969,907,46.2969,907,245,709,245,709,24" style="stroke: #000000; stroke-width: 1.5;"/><line style="stroke: #000000; stroke-width: 1.5;" x1="709" x2="904" y1="46.2969" y2="46.2969"/><text fill="#000000" font-family="sans-serif" font-size="14" font-weight="bold" lengthAdjust="spacingAndGlyphs" textLength="182" x="713" y="38.9951">External Dependencies</text><!--MD5=[2326b82e06ebec4f4256631066555e2e]
cluster Celo--><polygon fill="#FFFFFF" filter="url(#frargyvab3z4m)" points="442,158,483,158,490,180.2969,685,180.2969,685,494,442,494,442,158" style="stroke: #000000; stroke-width: 1.5;"/><line style="stroke: #000000; stroke-width: 1.5;" x1="442" x2="490" y1="180.2969" y2="180.2969"/><text fill="#000000" font-family="sans-serif" font-size="14" font-weight="bold" lengthAdjust="spacingAndGlyphs" textLength="35" x="446" y="172.9951">Celo</text><!--MD5=[b61a95a0f47cab54156748d3697fd10e]
cluster Espresso--><polygon fill="#FFFFFF" filter="url(#frargyvab3z4m)" points="22,294,101,294,108,316.2969,418,316.2969,418,609,22,609,22,294" style="stroke: #000000; stroke-width: 1.5;"/><line style="stroke: #000000; stroke-width: 1.5;" x1="22" x2="108" y1="316.2969" y2="316.2969"/><text fill="#000000" font-family="sans-serif" font-size="14" font-weight="bold" lengthAdjust="spacingAndGlyphs" textLength="73" x="26" y="308.9951">Espresso</text><!--MD5=[62d64fdbb6d65435b204ea8b9f39a9eb]
entity KonaExternal--><rect fill="#FEFECE" filter="url(#frargyvab3z4m)" height="36.2969" style="stroke: #A80036; stroke-width: 1.5;" width="55" x="728.5" y="59"/><rect fill="#FEFECE" height="5" style="stroke: #A80036; stroke-width: 1.5;" width="10" x="723.5" y="64"/><rect fill="#FEFECE" height="5" style="stroke: #A80036; stroke-width: 1.5;" width="10" x="723.5" y="85.2969"/><text fill="#000000" font-family="sans-serif" font-size="14" lengthAdjust="spacingAndGlyphs" textLength="35" x="738.5" y="81.9951">Kona</text><!--MD5=[5a6791ceb4b7392e1110384d71821a23]
entity OPSuccinctExternal--><rect fill="#FEFECE" filter="url(#frargyvab3z4m)" height="36.2969" style="stroke: #A80036; stroke-width: 1.5;" width="103" x="725.5" y="193"/><rect fill="#FEFECE" height="5" style="stroke: #A80036; stroke-width: 1.5;" width="10" x="720.5" y="198"/><rect fill="#FEFECE" height="5" style="stroke: #A80036; stroke-width: 1.5;" width="10" x="720.5" y="219.2969"/><text fill="#000000" font-family="sans-serif" font-size="14" lengthAdjust="spacingAndGlyphs" textLength="83" x="735.5" y="215.9951">OP Succinct</text><!--MD5=[def1516f320ac207971a3c1c52649dc2]
entity KonaCelo--><rect fill="#FEFECE" filter="url(#frargyvab3z4m)" height="36.2969" style="stroke: #A80036; stroke-width: 1.5;" width="55" x="539.5" y="193"/><rect fill="#FEFECE" height="5" style="stroke: #A80036; stroke-width: 1.5;" width="10" x="534.5" y="198"/><rect fill="#FEFECE" height="5" style="stroke: #A80036; stroke-width: 1.5;" width="10" x="534.5" y="219.2969"/><text fill="#000000" font-family="sans-serif" font-size="14" lengthAdjust="spacingAndGlyphs" textLength="35" x="549.5" y="215.9951">Kona</text><!--MD5=[d366bb1aa52aa55ddc63036c365bcee6]
entity CeloKonaCelo--><rect fill="#FEFECE" filter="url(#frargyvab3z4m)" height="36.2969" style="stroke: #A80036; stroke-width: 1.5;" width="90" x="458" y="329"/><rect fill="#FEFECE" height="5" style="stroke: #A80036; stroke-width: 1.5;" width="10" x="453" y="334"/><rect fill="#FEFECE" height="5" style="stroke: #A80036; stroke-width: 1.5;" width="10" x="453" y="355.2969"/><text fill="#000000" font-family="sans-serif" font-size="14" lengthAdjust="spacingAndGlyphs" textLength="70" x="468" y="351.9951">Celo Kona</text><!--MD5=[6a6366821e0c628ca657057c568c9ec8]
entity OPSuccinctCelo--><rect fill="#FEFECE" filter="url(#frargyvab3z4m)" height="36.2969" style="stroke: #A80036; stroke-width: 1.5;" width="103" x="511.5" y="442"/><rect fill="#FEFECE" height="5" style="stroke: #A80036; stroke-width: 1.5;" width="10" x="506.5" y="447"/><rect fill="#FEFECE" height="5" style="stroke: #A80036; stroke-width: 1.5;" width="10" x="506.5" y="468.2969"/><text fill="#000000" font-family="sans-serif" font-size="14" lengthAdjust="spacingAndGlyphs" textLength="83" x="521.5" y="464.9951">OP Succinct</text><!--MD5=[2df2aa6236fab0ad4f58ac5434203f6a]
entity KonaEspresso--><rect fill="#FEFECE" filter="url(#frargyvab3z4m)" height="36.2969" style="stroke: #A80036; stroke-width: 1.5;" width="55" x="323.5" y="329"/><rect fill="#FEFECE" height="5" style="stroke: #A80036; stroke-width: 1.5;" width="10" x="318.5" y="334"/><rect fill="#FEFECE" height="5" style="stroke: #A80036; stroke-width: 1.5;" width="10" x="318.5" y="355.2969"/><text fill="#000000" font-family="sans-serif" font-size="14" lengthAdjust="spacingAndGlyphs" textLength="35" x="333.5" y="351.9951">Kona</text><!--MD5=[602bd0455e93a0fc726b38ec90e95dd8]
entity CeloKonaEspresso--><rect fill="#FEFECE" filter="url(#frargyvab3z4m)" height="36.2969" style="stroke: #A80036; stroke-width: 1.5;" width="90" x="312" y="442"/><rect fill="#FEFECE" height="5" style="stroke: #A80036; stroke-width: 1.5;" width="10" x="307" y="447"/><rect fill="#FEFECE" height="5" style="stroke: #A80036; stroke-width: 1.5;" width="10" x="307" y="468.2969"/><text fill="#000000" font-family="sans-serif" font-size="14" lengthAdjust="spacingAndGlyphs" textLength="70" x="322" y="464.9951">Celo Kona</text><!--MD5=[126e486f7e120d9ffb332d5c4467b518]
entity OPSuccinctEspresso--><rect fill="#FEFECE" filter="url(#frargyvab3z4m)" height="36.2969" style="stroke: #A80036; stroke-width: 1.5;" width="103" x="215.5" y="557"/><rect fill="#FEFECE" height="5" style="stroke: #A80036; stroke-width: 1.5;" width="10" x="210.5" y="562"/><rect fill="#FEFECE" height="5" style="stroke: #A80036; stroke-width: 1.5;" width="10" x="210.5" y="583.2969"/><text fill="#000000" font-family="sans-serif" font-size="14" lengthAdjust="spacingAndGlyphs" textLength="83" x="225.5" y="579.9951">OP Succinct</text><!--MD5=[e55448d9112c9dfdfeba4f6a3ae93896]
entity OpIntegration--><rect fill="#FEFECE" filter="url(#frargyvab3z4m)" height="36.2969" style="stroke: #A80036; stroke-width: 1.5;" width="118" x="38" y="442"/><rect fill="#FEFECE" height="5" style="stroke: #A80036; stroke-width: 1.5;" width="10" x="33" y="447"/><rect fill="#FEFECE" height="5" style="stroke: #A80036; stroke-width: 1.5;" width="10" x="33" y="468.2969"/><text fill="#000000" font-family="sans-serif" font-size="14" lengthAdjust="spacingAndGlyphs" textLength="98" x="48" y="464.9951">OP Integration</text><!--MD5=[21066575c8ec7a876eca28596f2ab270]
link KonaCelo to CeloKonaCelo--><path d="M558.76,229.24 C547.2,253.47 526.13,297.56 513.47,324.08 " fill="none" id="KonaCelo-&gt;CeloKonaCelo" style="stroke: #A80036; stroke-width: 1.0;"/><polygon fill="#A80036" points="511.2,328.82,518.673,322.4048,513.3441,324.3031,511.4459,318.9742,511.2,328.82" style="stroke: #A80036; stroke-width: 1.0;"/><text fill="#000000" font-family="sans-serif" font-size="13" lengthAdjust="spacingAndGlyphs" textLength="49" x="543" y="274.0669">imports</text><!--MD5=[e6a0e3e001a44142c5b434d4ecf78069]
link CeloKonaCelo to OPSuccinctCelo--><path d="M512.38,365.34 C522.85,384.73 539.84,416.16 551.21,437.19 " fill="none" id="CeloKonaCelo-&gt;OPSuccinctCelo" style="stroke: #A80036; stroke-width: 1.0;"/><polygon fill="#A80036" points="553.69,441.78,552.9412,431.9596,551.3178,437.3786,545.8989,435.7552,553.69,441.78" style="stroke: #A80036; stroke-width: 1.0;"/><text fill="#000000" font-family="sans-serif" font-size="13" lengthAdjust="spacingAndGlyphs" textLength="49" x="537" y="408.0669">imports</text><!--MD5=[922da636372018b5918bb7ecbd2b994b]
link KonaExternal to OPSuccinctExternal--><path d="M758.75,95.26 C762.52,118.97 769.31,161.66 773.46,187.75 " fill="none" id="KonaExternal-&gt;OPSuccinctExternal" style="stroke: #A80036; stroke-width: 1.0;"/><polygon fill="#A80036" points="774.25,192.74,776.7875,183.2236,773.4651,187.802,768.8867,184.4796,774.25,192.74" style="stroke: #A80036; stroke-width: 1.0;"/><text fill="#000000" font-family="sans-serif" font-size="13" lengthAdjust="spacingAndGlyphs" textLength="49" x="766" y="138.0669">imports</text><!--MD5=[eb3105699499df9e1a3ac119b4616fe7]
link KonaCelo to OPSuccinctCelo--><path d="M582.81,229.2 C589.84,238.02 597.35,249.34 601,261 C610.98,292.88 665.38,200.51 595,412 C591.95,421.17 586.55,430.2 581.05,437.85 " fill="none" id="KonaCelo-&gt;OPSuccinctCelo" style="stroke: #A80036; stroke-width: 1.0;"/><polygon fill="#A80036" points="578,441.95,586.5807,437.1157,580.984,437.938,580.1616,432.3413,578,441.95" style="stroke: #A80036; stroke-width: 1.0;"/><text fill="#000000" font-family="sans-serif" font-size="13" lengthAdjust="spacingAndGlyphs" textLength="49" x="630" y="351.5669">imports</text><!--MD5=[61375c1a48b8af5ae8bcf4feac9e733e]
link OPSuccinctExternal to OPSuccinctCelo--><path d="M769.83,229.03 C756.7,258.88 726.58,321.58 688,365 C661.12,395.25 623.18,422.14 596.16,439.32 " fill="none" id="OPSuccinctExternal-&gt;OPSuccinctCelo" style="stroke: #A80036; stroke-width: 1.0;"/><polygon fill="#A80036" points="591.92,442,601.6652,440.5748,596.1471,439.3295,597.3924,433.8114,591.92,442" style="stroke: #A80036; stroke-width: 1.0;"/><text fill="#000000" font-family="sans-serif" font-size="13" lengthAdjust="spacingAndGlyphs" textLength="24" x="741" y="351.5669">fork</text><!--MD5=[985c716e33ada0ff27446afddbaeb96a]
link CeloKonaCelo to CeloKonaEspresso--><path d="M480.51,365.1 C454.43,384.92 411.5,417.57 383.74,438.67 " fill="none" id="CeloKonaCelo-&gt;CeloKonaEspresso" style="stroke: #A80036; stroke-width: 1.0;"/><polygon fill="#A80036" points="379.76,441.7,389.3421,439.4232,383.7358,438.6681,384.491,433.0618,379.76,441.7" style="stroke: #A80036; stroke-width: 1.0;"/><text fill="#000000" font-family="sans-serif" font-size="13" lengthAdjust="spacingAndGlyphs" textLength="24" x="439" y="408.0669">fork</text><!--MD5=[01d465dcb9d060f5ec3cb0e6b14b6aa1]
link OPSuccinctCelo to OPSuccinctEspresso--><path d="M518.37,478.04 C464.28,498.69 373.41,533.38 317.01,554.91 " fill="none" id="OPSuccinctCelo-&gt;OPSuccinctEspresso" style="stroke: #A80036; stroke-width: 1.0;"/><polygon fill="#A80036" points="312,556.82,321.8335,557.369,316.6752,555.0472,318.997,549.8888,312,556.82" style="stroke: #A80036; stroke-width: 1.0;"/><text fill="#000000" font-family="sans-serif" font-size="13" lengthAdjust="spacingAndGlyphs" textLength="24" x="433" y="523.0669">fork</text><!--MD5=[ae80ee1bd90e50b9a58442a44dc34fb7]
link KonaExternal to KonaCelo--><path d="M731.29,95.26 C696.39,119.63 632.79,164.05 595.79,189.89 " fill="none" id="KonaExternal-&gt;KonaCelo" style="stroke: #A80036; stroke-width: 1.0;"/><polygon fill="#A80036" points="591.42,192.95,601.0865,191.0635,595.5155,190.0817,596.4973,184.5107,591.42,192.95" style="stroke: #A80036; stroke-width: 1.0;"/><text fill="#000000" font-family="sans-serif" font-size="13" lengthAdjust="spacingAndGlyphs" textLength="24" x="684" y="138.0669">fork</text><!--MD5=[54126c8adfc229cc273e93303989e70b]
link KonaCelo to KonaEspresso--><path d="M539.46,227.79 C513.98,242.52 475.15,265.28 442,286 C421.29,298.95 398.33,314.09 380.66,325.92 " fill="none" id="KonaCelo-&gt;KonaEspresso" style="stroke: #A80036; stroke-width: 1.0;"/><polygon fill="#A80036" points="376.28,328.86,385.9833,327.1728,380.4337,326.0766,381.5299,320.527,376.28,328.86" style="stroke: #A80036; stroke-width: 1.0;"/><text fill="#000000" font-family="sans-serif" font-size="13" lengthAdjust="spacingAndGlyphs" textLength="24" x="483" y="274.0669">fork</text><!--MD5=[c9b298b161da0dcda687d5c3332cab0c]
link OpIntegration to OPSuccinctEspresso--><path d="M99,478.17 C101.62,493.01 107.57,514.06 121,527 C144.93,550.05 180.22,561.8 210.11,567.78 " fill="none" id="OpIntegration-&gt;OPSuccinctEspresso" style="stroke: #A80036; stroke-width: 1.0;"/><polygon fill="#A80036" points="215.24,568.77,207.1579,563.1415,210.3301,567.8252,205.6463,570.9974,215.24,568.77" style="stroke: #A80036; stroke-width: 1.0;"/><text fill="#000000" font-family="sans-serif" font-size="13" lengthAdjust="spacingAndGlyphs" textLength="94" x="122" y="523.0669">docker images</text><!--MD5=[f171108a3bdd2f3ded5583920441615e]
link KonaEspresso to CeloKonaEspresso--><path d="M348.88,365.14 C347.61,378.05 346.5,396.16 348,412 C348.77,420.06 350.25,428.8 351.8,436.53 " fill="none" id="KonaEspresso-&gt;CeloKonaEspresso" style="stroke: #A80036; stroke-width: 1.0;"/><polygon fill="#A80036" points="352.88,441.7,354.9671,432.0748,351.8637,436.8044,347.1341,433.701,352.88,441.7" style="stroke: #A80036; stroke-width: 1.0;"/><text fill="#000000" font-family="sans-serif" font-size="13" lengthAdjust="spacingAndGlyphs" textLength="49" x="349" y="408.0669">imports</text><!--MD5=[e9b6655ccb0184654e615b5f1c37bdaf]
link CeloKonaEspresso to OPSuccinctEspresso--><path d="M343.33,478.16 C327.47,498.07 301.31,530.93 284.11,552.52 " fill="none" id="CeloKonaEspresso-&gt;OPSuccinctEspresso" style="stroke: #A80036; stroke-width: 1.0;"/><polygon fill="#A80036" points="280.8,556.68,289.5437,552.1471,283.9217,552.7743,283.2945,547.1523,280.8,556.68" style="stroke: #A80036; stroke-width: 1.0;"/><text fill="#000000" font-family="sans-serif" font-size="13" lengthAdjust="spacingAndGlyphs" textLength="49" x="318" y="523.0669">imports</text><!--MD5=[87b878cc79df5e7ef4cf414607cd8a9b]
link KonaEspresso to OPSuccinctEspresso--><path d="M323.05,363.13 C297.09,378.94 260.11,406.41 244,442 C227.57,478.31 243.43,525.14 255.72,552.15 " fill="none" id="KonaEspresso-&gt;OPSuccinctEspresso" style="stroke: #A80036; stroke-width: 1.0;"/><polygon fill="#A80036" points="257.97,556.96,257.7871,547.1128,255.8548,552.4294,250.5382,550.4972,257.97,556.96" style="stroke: #A80036; stroke-width: 1.0;"/><text fill="#000000" font-family="sans-serif" font-size="13" lengthAdjust="spacingAndGlyphs" textLength="49" x="245" y="464.5669">imports</text><!--MD5=[048216da39d8aff9795d00a0f6abe424]
@startuml

package "External Dependencies" {
  [ Kona ] as KonaExternal
  [OP Succinct] as OPSuccinctExternal
}

package "Celo" {
  [Kona] as KonaCelo
  [Celo Kona] as CeloKonaCelo
  [OP Succinct] as OPSuccinctCelo
}

package "Espresso" {
  [Kona] as KonaEspresso
  [Celo Kona] as CeloKonaEspresso
  [OP Succinct] as OPSuccinctEspresso
  [OP Integration] as OpIntegration
}




KonaCelo - -> CeloKonaCelo: imports
CeloKonaCelo- -> OPSuccinctCelo : imports
KonaExternal- -> OPSuccinctExternal : imports
KonaCelo - -> OPSuccinctCelo: imports

OPSuccinctExternal - -> OPSuccinctCelo: fork
CeloKonaCelo - -> CeloKonaEspresso: fork
OPSuccinctCelo - -> OPSuccinctEspresso: fork
KonaExternal - -> KonaCelo: fork
KonaCelo - -> KonaEspresso: fork

OpIntegration - -> OPSuccinctEspresso : docker images
KonaEspresso   - -> CeloKonaEspresso: imports
CeloKonaEspresso  - -> OPSuccinctEspresso : imports
KonaEspresso - -> OPSuccinctEspresso : imports


@enduml

PlantUML version 1.2020.02(Sun Mar 01 07:22:07 CLST 2020)
(GPL source distribution)
Java Runtime: OpenJDK Runtime Environment
JVM: OpenJDK 64-Bit Server VM
Java Version: 11.0.29+7-post-Ubuntu-1ubuntu122.04
Operating System: Linux
Default Encoding: UTF-8
Language: es
Country: CL
--></g></svg>