<?xml version="1.0" encoding="UTF-8" standalone="no"?><svg xmlns="http://www.w3.org/2000/svg" xmlns:xlink="http://www.w3.org/1999/xlink" contentScriptType="application/ecmascript" contentStyleType="text/css" height="734px" preserveAspectRatio="none" style="width:804px;height:734px;" version="1.1" viewBox="0 0 804 734" width="804px" zoomAndPan="magnify"><defs><filter height="300%" id="fkmjbjr0ba632" width="300%" x="-1" y="-1"><feGaussianBlur result="blurOut" stdDeviation="2.0"/><feColorMatrix in="blurOut" result="blurOut2" type="matrix" values="0 0 0 0 0 0 0 0 0 0 0 0 0 0 0 0 0 0 .4 0"/><feOffset dx="4.0" dy="4.0" in="blurOut2" result="blurOut3"/><feBlend in="SourceGraphic" in2="blurOut3" mode="normal"/></filter></defs><g><!--MD5=[7f8134b78695bef3e790eae6add485b3]
cluster External Dependencies--><polygon fill="#FFFFFF" filter="url(#fkmjbjr0ba632)" points="584.96,24,772.96,24,779.96,46.2969,782.96,46.2969,782.96,245,584.96,245,584.96,24" style="stroke: #000000; stroke-width: 1.5;"/><line style="stroke: #000000; stroke-width: 1.5;" x1="584.96" x2="779.96" y1="46.2969" y2="46.2969"/><text fill="#000000" font-family="sans-serif" font-size="14" font-weight="bold" lengthAdjust="spacingAndGlyphs" textLength="182" x="588.96" y="38.9951">External Dependencies</text><!--MD5=[2326b82e06ebec4f4256631066555e2e]
cluster Celo--><polygon fill="#FFFFFF" filter="url(#fkmjbjr0ba632)" points="317.96,158,358.96,158,365.96,180.2969,560.96,180.2969,560.96,494,317.96,494,317.96,158" style="stroke: #000000; stroke-width: 1.5;"/><line style="stroke: #000000; stroke-width: 1.5;" x1="317.96" x2="365.96" y1="180.2969" y2="180.2969"/><text fill="#000000" font-family="sans-serif" font-size="14" font-weight="bold" lengthAdjust="spacingAndGlyphs" textLength="35" x="321.96" y="172.9951">Celo</text><!--MD5=[b61a95a0f47cab54156748d3697fd10e]
cluster Espresso--><polygon fill="#FFFFFF" filter="url(#fkmjbjr0ba632)" points="32.96,407,111.96,407,118.96,429.2969,293.96,429.2969,293.96,722,32.96,722,32.96,407" style="stroke: #000000; stroke-width: 1.5;"/><line style="stroke: #000000; stroke-width: 1.5;" x1="32.96" x2="118.96" y1="429.2969" y2="429.2969"/><text fill="#000000" font-family="sans-serif" font-size="14" font-weight="bold" lengthAdjust="spacingAndGlyphs" textLength="73" x="36.96" y="421.9951">Espresso</text><!--MD5=[62d64fdbb6d65435b204ea8b9f39a9eb]
entity KonaExternal--><rect fill="#FEFECE" filter="url(#fkmjbjr0ba632)" height="36.2969" style="stroke: #A80036; stroke-width: 1.5;" width="55" x="604.46" y="59"/><rect fill="#FEFECE" height="5" style="stroke: #A80036; stroke-width: 1.5;" width="10" x="599.46" y="64"/><rect fill="#FEFECE" height="5" style="stroke: #A80036; stroke-width: 1.5;" width="10" x="599.46" y="85.2969"/><text fill="#000000" font-family="sans-serif" font-size="14" lengthAdjust="spacingAndGlyphs" textLength="35" x="614.46" y="81.9951">Kona</text><!--MD5=[3c51b299848d9a7445b331f3dfe515c9]
entity OPSuccintExternal--><rect fill="#FEFECE" filter="url(#fkmjbjr0ba632)" height="36.2969" style="stroke: #A80036; stroke-width: 1.5;" width="103" x="601.46" y="193"/><rect fill="#FEFECE" height="5" style="stroke: #A80036; stroke-width: 1.5;" width="10" x="596.46" y="198"/><rect fill="#FEFECE" height="5" style="stroke: #A80036; stroke-width: 1.5;" width="10" x="596.46" y="219.2969"/><text fill="#000000" font-family="sans-serif" font-size="14" lengthAdjust="spacingAndGlyphs" textLength="83" x="611.46" y="215.9951">OP Succinct</text><!--MD5=[def1516f320ac207971a3c1c52649dc2]
entity KonaCelo--><rect fill="#FEFECE" filter="url(#fkmjbjr0ba632)" height="36.2969" style="stroke: #A80036; stroke-width: 1.5;" width="55" x="415.46" y="193"/><rect fill="#FEFECE" height="5" style="stroke: #A80036; stroke-width: 1.5;" width="10" x="410.46" y="198"/><rect fill="#FEFECE" height="5" style="stroke: #A80036; stroke-width: 1.5;" width="10" x="410.46" y="219.2969"/><text fill="#000000" font-family="sans-serif" font-size="14" lengthAdjust="spacingAndGlyphs" textLength="35" x="425.46" y="215.9951">Kona</text><!--MD5=[d366bb1aa52aa55ddc63036c365bcee6]
entity CeloKonaCelo--><rect fill="#FEFECE" filter="url(#fkmjbjr0ba632)" height="36.2969" style="stroke: #A80036; stroke-width: 1.5;" width="90" x="333.96" y="308"/><rect fill="#FEFECE" height="5" style="stroke: #A80036; stroke-width: 1.5;" width="10" x="328.96" y="313"/><rect fill="#FEFECE" height="5" style="stroke: #A80036; stroke-width: 1.5;" width="10" x="328.96" y="334.2969"/><text fill="#000000" font-family="sans-serif" font-size="14" lengthAdjust="spacingAndGlyphs" textLength="70" x="343.96" y="330.9951">Celo Kona</text><!--MD5=[3deccaa503357f6155bdf28d1b907c2f]
entity OPSuccintCelo--><rect fill="#FEFECE" filter="url(#fkmjbjr0ba632)" height="36.2969" style="stroke: #A80036; stroke-width: 1.5;" width="95" x="390.46" y="442"/><rect fill="#FEFECE" height="5" style="stroke: #A80036; stroke-width: 1.5;" width="10" x="385.46" y="447"/><rect fill="#FEFECE" height="5" style="stroke: #A80036; stroke-width: 1.5;" width="10" x="385.46" y="468.2969"/><text fill="#000000" font-family="sans-serif" font-size="14" lengthAdjust="spacingAndGlyphs" textLength="75" x="400.46" y="464.9951">OP Succint</text><!--MD5=[2df2aa6236fab0ad4f58ac5434203f6a]
entity KonaEspresso--><rect fill="#FEFECE" filter="url(#fkmjbjr0ba632)" height="36.2969" style="stroke: #A80036; stroke-width: 1.5;" width="55" x="49.46" y="442"/><rect fill="#FEFECE" height="5" style="stroke: #A80036; stroke-width: 1.5;" width="10" x="44.46" y="447"/><rect fill="#FEFECE" height="5" style="stroke: #A80036; stroke-width: 1.5;" width="10" x="44.46" y="468.2969"/><text fill="#000000" font-family="sans-serif" font-size="14" lengthAdjust="spacingAndGlyphs" textLength="35" x="59.46" y="464.9951">Kona</text><!--MD5=[602bd0455e93a0fc726b38ec90e95dd8]
entity CeloKonaEspresso--><rect fill="#FEFECE" filter="url(#fkmjbjr0ba632)" height="36.2969" style="stroke: #A80036; stroke-width: 1.5;" width="90" x="48.96" y="670"/><rect fill="#FEFECE" height="5" style="stroke: #A80036; stroke-width: 1.5;" width="10" x="43.96" y="675"/><rect fill="#FEFECE" height="5" style="stroke: #A80036; stroke-width: 1.5;" width="10" x="43.96" y="696.2969"/><text fill="#000000" font-family="sans-serif" font-size="14" lengthAdjust="spacingAndGlyphs" textLength="70" x="58.96" y="692.9951">Celo Kona</text><!--MD5=[2f12b53f055ef9d20cc47b1739a47e1e]
entity OPSuccintEspresso--><rect fill="#FEFECE" filter="url(#fkmjbjr0ba632)" height="36.2969" style="stroke: #A80036; stroke-width: 1.5;" width="95" x="170.46" y="557"/><rect fill="#FEFECE" height="5" style="stroke: #A80036; stroke-width: 1.5;" width="10" x="165.46" y="562"/><rect fill="#FEFECE" height="5" style="stroke: #A80036; stroke-width: 1.5;" width="10" x="165.46" y="583.2969"/><text fill="#000000" font-family="sans-serif" font-size="14" lengthAdjust="spacingAndGlyphs" textLength="75" x="180.46" y="579.9951">OP Succint</text><!--MD5=[e55448d9112c9dfdfeba4f6a3ae93896]
entity OpIntegration--><rect fill="#FEFECE" filter="url(#fkmjbjr0ba632)" height="36.2969" style="stroke: #A80036; stroke-width: 1.5;" width="118" x="139.96" y="442"/><rect fill="#FEFECE" height="5" style="stroke: #A80036; stroke-width: 1.5;" width="10" x="134.96" y="447"/><rect fill="#FEFECE" height="5" style="stroke: #A80036; stroke-width: 1.5;" width="10" x="134.96" y="468.2969"/><text fill="#000000" font-family="sans-serif" font-size="14" lengthAdjust="spacingAndGlyphs" textLength="98" x="149.96" y="464.9951">OP Integration</text><!--MD5=[21066575c8ec7a876eca28596f2ab270]
link KonaCelo to CeloKonaCelo--><path d="M433.24,229.16 C422.01,248.99 403.51,281.65 391.28,303.25 " fill="none" id="KonaCelo-&gt;CeloKonaCelo" style="stroke: #A80036; stroke-width: 1.0;"/><polygon fill="#A80036" points="388.77,307.68,396.6896,301.8251,391.2369,303.3309,389.7311,297.8781,388.77,307.68" style="stroke: #A80036; stroke-width: 1.0;"/><text fill="#000000" font-family="sans-serif" font-size="13" lengthAdjust="spacingAndGlyphs" textLength="49" x="414.96" y="274.0669">imports</text><!--MD5=[e0dfeaef64ecb7c1e271963eb506c9a1]
link CeloKonaCelo to OPSuccintCelo--><path d="M386.67,344.26 C397.32,368.07 416.51,411.02 428.16,437.08 " fill="none" id="CeloKonaCelo-&gt;OPSuccintCelo" style="stroke: #A80036; stroke-width: 1.0;"/><polygon fill="#A80036" points="430.24,441.74,430.22,431.8912,428.2,437.1751,422.9161,435.1551,430.24,441.74" style="stroke: #A80036; stroke-width: 1.0;"/><text fill="#000000" font-family="sans-serif" font-size="13" lengthAdjust="spacingAndGlyphs" textLength="49" x="406.96" y="387.0669">imports</text><!--MD5=[f27d00ce58544ee430219e46d3f296d2]
link KonaExternal to OPSuccintExternal--><path d="M634.7,95.26 C638.48,118.97 645.27,161.66 649.42,187.75 " fill="none" id="KonaExternal-&gt;OPSuccintExternal" style="stroke: #A80036; stroke-width: 1.0;"/><polygon fill="#A80036" points="650.21,192.74,652.7432,183.2225,649.4228,187.8024,644.843,184.482,650.21,192.74" style="stroke: #A80036; stroke-width: 1.0;"/><text fill="#000000" font-family="sans-serif" font-size="13" lengthAdjust="spacingAndGlyphs" textLength="49" x="641.96" y="138.0669">imports</text><!--MD5=[cee36f56541e33dfe64da4015ab34033]
link KonaCelo to OPSuccintCelo--><path d="M456.61,229.04 C462.92,237.99 469.71,249.48 472.96,261 C480.1,286.34 501.35,231.52 464.96,391 C461.31,406.99 454.47,424.15 448.59,437.24 " fill="none" id="KonaCelo-&gt;OPSuccintCelo" style="stroke: #A80036; stroke-width: 1.0;"/><polygon fill="#A80036" points="446.47,441.86,453.8357,435.3219,448.539,437.3082,446.5528,432.0115,446.47,441.86" style="stroke: #A80036; stroke-width: 1.0;"/><text fill="#000000" font-family="sans-serif" font-size="13" lengthAdjust="spacingAndGlyphs" textLength="49" x="482.96" y="330.5669">imports</text><!--MD5=[ae80ee1bd90e50b9a58442a44dc34fb7]
link KonaExternal to KonaCelo--><path d="M607.25,95.26 C572.35,119.63 508.74,164.05 471.75,189.89 " fill="none" id="KonaExternal-&gt;KonaCelo" style="stroke: #A80036; stroke-width: 1.0;"/><polygon fill="#A80036" points="467.37,192.95,477.0409,191.0861,471.4722,190.0913,472.467,184.5226,467.37,192.95" style="stroke: #A80036; stroke-width: 1.0;"/><text fill="#000000" font-family="sans-serif" font-size="13" lengthAdjust="spacingAndGlyphs" textLength="24" x="559.96" y="138.0669">fork</text><!--MD5=[ab7a25c2f2e270f9fe3ed4bef39032cc]
link OPSuccintExternal to OPSuccintCelo--><path d="M638.61,229.21 C617.44,254.53 576.51,303.22 540.96,344 C511.99,377.23 477.72,415.23 456.93,438.16 " fill="none" id="OPSuccintExternal-&gt;OPSuccintCelo" style="stroke: #A80036; stroke-width: 1.0;"/><polygon fill="#A80036" points="453.46,441.98,462.4784,438.0216,456.8276,438.2842,456.5651,432.6334,453.46,441.98" style="stroke: #A80036; stroke-width: 1.0;"/><text fill="#000000" font-family="sans-serif" font-size="13" lengthAdjust="spacingAndGlyphs" textLength="24" x="572.96" y="330.5669">fork</text><!--MD5=[54126c8adfc229cc273e93303989e70b]
link KonaCelo to KonaEspresso--><path d="M415.24,223.56 C356.5,248.99 217.1,314.3 121.96,399 C109.49,410.1 98.22,425.14 90.07,437.38 " fill="none" id="KonaCelo-&gt;KonaEspresso" style="stroke: #A80036; stroke-width: 1.0;"/><polygon fill="#A80036" points="87.22,441.75,95.4857,436.3949,89.9505,437.5614,88.7839,432.0261,87.22,441.75" style="stroke: #A80036; stroke-width: 1.0;"/><text fill="#000000" font-family="sans-serif" font-size="13" lengthAdjust="spacingAndGlyphs" textLength="24" x="246.96" y="330.5669">fork</text><!--MD5=[985c716e33ada0ff27446afddbaeb96a]
link CeloKonaCelo to CeloKonaEspresso--><path d="M333.68,334.84 C241.85,350.95 41.52,387.25 31.96,399 C-33.67,479.64 44.03,613.81 78.81,665.65 " fill="none" id="CeloKonaCelo-&gt;CeloKonaEspresso" style="stroke: #A80036; stroke-width: 1.0;"/><polygon fill="#A80036" points="81.63,669.83,79.8815,660.1376,78.8204,665.694,73.264,664.633,81.63,669.83" style="stroke: #A80036; stroke-width: 1.0;"/><text fill="#000000" font-family="sans-serif" font-size="13" lengthAdjust="spacingAndGlyphs" textLength="24" x="14.96" y="523.0669">fork</text><!--MD5=[618bc08e75dc1382679aa4a556aa7a57]
link OPSuccintCelo to OPSuccintEspresso--><path d="M405.38,478.06 C379.76,491.44 343.13,510.51 310.96,527 C293.15,536.13 273.37,546.14 256.65,554.57 " fill="none" id="OPSuccintCelo-&gt;OPSuccintEspresso" style="stroke: #A80036; stroke-width: 1.0;"/><polygon fill="#A80036" points="252.02,556.9,261.8569,556.4151,256.4835,554.6468,258.2519,549.2735,252.02,556.9" style="stroke: #A80036; stroke-width: 1.0;"/><text fill="#000000" font-family="sans-serif" font-size="13" lengthAdjust="spacingAndGlyphs" textLength="24" x="343.96" y="523.0669">fork</text><!--MD5=[db8b6796632c7c281dde26649e5188ca]
link OpIntegration to OPSuccintEspresso--><path d="M201.84,478.16 C205.15,497.82 210.58,530.11 214.21,551.7 " fill="none" id="OpIntegration-&gt;OPSuccintEspresso" style="stroke: #A80036; stroke-width: 1.0;"/><polygon fill="#A80036" points="215.05,556.68,217.5025,547.1414,214.2211,551.7492,209.6133,548.4677,215.05,556.68" style="stroke: #A80036; stroke-width: 1.0;"/><text fill="#000000" font-family="sans-serif" font-size="13" lengthAdjust="spacingAndGlyphs" textLength="94" x="210.96" y="523.0669">docker images</text><!--MD5=[4736e88e8ee4acea9c79c52cfbd5687a]
link CeloKonaEspresso to KonaEspresso--><path d="M92.67,669.89 C89.64,629.62 82.06,528.82 78.66,483.59 " fill="none" id="CeloKonaEspresso-&gt;KonaEspresso" style="stroke: #A80036; stroke-width: 1.0;"/><polygon fill="#A80036" points="78.26,478.36,74.9661,487.6417,78.6457,483.3451,82.9423,487.0247,78.26,478.36" style="stroke: #A80036; stroke-width: 1.0;"/><text fill="#000000" font-family="sans-serif" font-size="13" lengthAdjust="spacingAndGlyphs" textLength="49" x="87.96" y="579.5669">imports</text><!--MD5=[75886f74fa009ed94746d5a9aaedde98]
link OPSuccintEspresso to CeloKonaEspresso--><path d="M198.85,593.1 C176.89,612.76 140.84,645.03 117.25,666.15 " fill="none" id="OPSuccintEspresso-&gt;CeloKonaEspresso" style="stroke: #A80036; stroke-width: 1.0;"/><polygon fill="#A80036" points="113.29,669.7,122.6677,666.6903,117.0199,666.3702,117.3401,660.7224,113.29,669.7" style="stroke: #A80036; stroke-width: 1.0;"/><text fill="#000000" font-family="sans-serif" font-size="13" lengthAdjust="spacingAndGlyphs" textLength="49" x="164.96" y="636.0669">imports</text><!--MD5=[b956c7378ba0b7fb6d5e0189097b53cd]
link KonaEspresso to OPSuccintEspresso--><path d="M94.09,478.01 C108.3,491.79 129.29,511.42 148.96,527 C160.8,536.38 174.43,545.91 186.44,553.91 " fill="none" id="KonaEspresso-&gt;OPSuccintEspresso" style="stroke: #A80036; stroke-width: 1.0;"/><polygon fill="#A80036" points="190.78,556.79,185.4972,548.4778,186.6154,554.0231,181.0701,555.1413,190.78,556.79" style="stroke: #A80036; stroke-width: 1.0;"/><text fill="#000000" font-family="sans-serif" font-size="13" lengthAdjust="spacingAndGlyphs" textLength="49" x="149.96" y="523.0669">imports</text><!--MD5=[bbad7877cce9654025e273f73bfd8f26]
@startuml

package "External Dependencies" {
  [ Kona ] as KonaExternal
  [OP Succinct] as OPSuccintExternal
}

package "Celo" {
  [Kona] as KonaCelo
  [Celo Kona] as CeloKonaCelo
  [OP Succint] as OPSuccintCelo
}

package "Espresso" {
  [Kona] as KonaEspresso
  [Celo Kona] as CeloKonaEspresso
  [OP Succint] as OPSuccintEspresso
  [OP Integration] as OpIntegration
}


 KonaCelo- -> CeloKonaCelo: imports

 CeloKonaCelo- -> OPSuccintCelo : imports
 KonaExternal- -> OPSuccintExternal : imports
KonaCelo  - -> OPSuccintCelo: imports

KonaExternal - -> KonaCelo: fork
OPSuccintExternal - -> OPSuccintCelo: fork
KonaCelo - -> KonaEspresso: fork
CeloKonaCelo - -> CeloKonaEspresso: fork
OPSuccintCelo - -> OPSuccintEspresso: fork

OpIntegration - -> OPSuccintEspresso : docker images
CeloKonaEspresso  - -> KonaEspresso: imports
OPSuccintEspresso - -> CeloKonaEspresso: imports
KonaEspresso - -> OPSuccintEspresso : imports


@enduml

PlantUML version 1.2020.02(Sun Mar 01 07:22:07 CLST 2020)
(GPL source distribution)
Java Runtime: OpenJDK Runtime Environment
JVM: OpenJDK 64-Bit Server VM
Java Version: 11.0.29+7-post-Ubuntu-1ubuntu122.04
Operating System: Linux
Default Encoding: UTF-8
Language: es
Country: CL
--></g></svg>