<?xml version="1.0" encoding="UTF-8" standalone="no"?><svg xmlns="http://www.w3.org/2000/svg" xmlns:xlink="http://www.w3.org/1999/xlink" contentScriptType="application/ecmascript" contentStyleType="text/css" height="487px" preserveAspectRatio="none" style="width:814px;height:487px;" version="1.1" viewBox="0 0 814 487" width="814px" zoomAndPan="magnify"><defs><filter height="300%" id="f1b8ilwbli8ech" width="300%" x="-1" y="-1"><feGaussianBlur result="blurOut" stdDeviation="2.0"/><feColorMatrix in="blurOut" result="blurOut2" type="matrix" values="0 0 0 0 0 0 0 0 0 0 0 0 0 0 0 0 0 0 .4 0"/><feOffset dx="4.0" dy="4.0" in="blurOut2" result="blurOut3"/><feBlend in="SourceGraphic" in2="blurOut3" mode="normal"/></filter></defs><g><!--MD5=[7f8134b78695bef3e790eae6add485b3]
cluster External Dependencies--><polygon fill="#FFFFFF" filter="url(#f1b8ilwbli8ech)" points="594,24,782,24,789,46.2969,792,46.2969,792,245,594,245,594,24" style="stroke: #000000; stroke-width: 1.5;"/><line style="stroke: #000000; stroke-width: 1.5;" x1="594" x2="789" y1="46.2969" y2="46.2969"/><text fill="#000000" font-family="sans-serif" font-size="14" font-weight="bold" lengthAdjust="spacingAndGlyphs" textLength="182" x="598" y="38.9951">External Dependencies</text><!--MD5=[2326b82e06ebec4f4256631066555e2e]
cluster Celo--><polygon fill="#FFFFFF" filter="url(#f1b8ilwbli8ech)" points="442,158,483,158,490,180.2969,570,180.2969,570,360,442,360,442,158" style="stroke: #000000; stroke-width: 1.5;"/><line style="stroke: #000000; stroke-width: 1.5;" x1="442" x2="490" y1="180.2969" y2="180.2969"/><text fill="#000000" font-family="sans-serif" font-size="14" font-weight="bold" lengthAdjust="spacingAndGlyphs" textLength="35" x="446" y="172.9951">Celo</text><!--MD5=[b61a95a0f47cab54156748d3697fd10e]
cluster Espresso--><polygon fill="#FFFFFF" filter="url(#f1b8ilwbli8ech)" points="22,158,101,158,108,180.2969,418,180.2969,418,475,22,475,22,158" style="stroke: #000000; stroke-width: 1.5;"/><line style="stroke: #000000; stroke-width: 1.5;" x1="22" x2="108" y1="180.2969" y2="180.2969"/><text fill="#000000" font-family="sans-serif" font-size="14" font-weight="bold" lengthAdjust="spacingAndGlyphs" textLength="73" x="26" y="172.9951">Espresso</text><!--MD5=[62d64fdbb6d65435b204ea8b9f39a9eb]
entity KonaExternal--><rect fill="#FEFECE" filter="url(#f1b8ilwbli8ech)" height="36.2969" style="stroke: #A80036; stroke-width: 1.5;" width="55" x="622.5" y="59"/><rect fill="#FEFECE" height="5" style="stroke: #A80036; stroke-width: 1.5;" width="10" x="617.5" y="64"/><rect fill="#FEFECE" height="5" style="stroke: #A80036; stroke-width: 1.5;" width="10" x="617.5" y="85.2969"/><text fill="#000000" font-family="sans-serif" font-size="14" lengthAdjust="spacingAndGlyphs" textLength="35" x="632.5" y="81.9951">Kona</text><!--MD5=[3c51b299848d9a7445b331f3dfe515c9]
entity OPSuccintExternal--><rect fill="#FEFECE" filter="url(#f1b8ilwbli8ech)" height="36.2969" style="stroke: #A80036; stroke-width: 1.5;" width="103" x="610.5" y="193"/><rect fill="#FEFECE" height="5" style="stroke: #A80036; stroke-width: 1.5;" width="10" x="605.5" y="198"/><rect fill="#FEFECE" height="5" style="stroke: #A80036; stroke-width: 1.5;" width="10" x="605.5" y="219.2969"/><text fill="#000000" font-family="sans-serif" font-size="14" lengthAdjust="spacingAndGlyphs" textLength="83" x="620.5" y="215.9951">OP Succinct</text><!--MD5=[d366bb1aa52aa55ddc63036c365bcee6]
entity CeloKonaCelo--><rect fill="#FEFECE" filter="url(#f1b8ilwbli8ech)" height="36.2969" style="stroke: #A80036; stroke-width: 1.5;" width="90" x="458" y="193"/><rect fill="#FEFECE" height="5" style="stroke: #A80036; stroke-width: 1.5;" width="10" x="453" y="198"/><rect fill="#FEFECE" height="5" style="stroke: #A80036; stroke-width: 1.5;" width="10" x="453" y="219.2969"/><text fill="#000000" font-family="sans-serif" font-size="14" lengthAdjust="spacingAndGlyphs" textLength="70" x="468" y="215.9951">Celo Kona</text><!--MD5=[3deccaa503357f6155bdf28d1b907c2f]
entity OPSuccintCelo--><rect fill="#FEFECE" filter="url(#f1b8ilwbli8ech)" height="36.2969" style="stroke: #A80036; stroke-width: 1.5;" width="95" x="458.5" y="308"/><rect fill="#FEFECE" height="5" style="stroke: #A80036; stroke-width: 1.5;" width="10" x="453.5" y="313"/><rect fill="#FEFECE" height="5" style="stroke: #A80036; stroke-width: 1.5;" width="10" x="453.5" y="334.2969"/><text fill="#000000" font-family="sans-serif" font-size="14" lengthAdjust="spacingAndGlyphs" textLength="75" x="468.5" y="330.9951">OP Succint</text><!--MD5=[2df2aa6236fab0ad4f58ac5434203f6a]
entity KonaEspresso--><rect fill="#FEFECE" filter="url(#f1b8ilwbli8ech)" height="36.2969" style="stroke: #A80036; stroke-width: 1.5;" width="55" x="318.5" y="193"/><rect fill="#FEFECE" height="5" style="stroke: #A80036; stroke-width: 1.5;" width="10" x="313.5" y="198"/><rect fill="#FEFECE" height="5" style="stroke: #A80036; stroke-width: 1.5;" width="10" x="313.5" y="219.2969"/><text fill="#000000" font-family="sans-serif" font-size="14" lengthAdjust="spacingAndGlyphs" textLength="35" x="328.5" y="215.9951">Kona</text><!--MD5=[602bd0455e93a0fc726b38ec90e95dd8]
entity CeloKonaEspresso--><rect fill="#FEFECE" filter="url(#f1b8ilwbli8ech)" height="36.2969" style="stroke: #A80036; stroke-width: 1.5;" width="90" x="312" y="308"/><rect fill="#FEFECE" height="5" style="stroke: #A80036; stroke-width: 1.5;" width="10" x="307" y="313"/><rect fill="#FEFECE" height="5" style="stroke: #A80036; stroke-width: 1.5;" width="10" x="307" y="334.2969"/><text fill="#000000" font-family="sans-serif" font-size="14" lengthAdjust="spacingAndGlyphs" textLength="70" x="322" y="330.9951">Celo Kona</text><!--MD5=[2f12b53f055ef9d20cc47b1739a47e1e]
entity OPSuccintEspresso--><rect fill="#FEFECE" filter="url(#f1b8ilwbli8ech)" height="36.2969" style="stroke: #A80036; stroke-width: 1.5;" width="95" x="219.5" y="423"/><rect fill="#FEFECE" height="5" style="stroke: #A80036; stroke-width: 1.5;" width="10" x="214.5" y="428"/><rect fill="#FEFECE" height="5" style="stroke: #A80036; stroke-width: 1.5;" width="10" x="214.5" y="449.2969"/><text fill="#000000" font-family="sans-serif" font-size="14" lengthAdjust="spacingAndGlyphs" textLength="75" x="229.5" y="445.9951">OP Succint</text><!--MD5=[e55448d9112c9dfdfeba4f6a3ae93896]
entity OpIntegration--><rect fill="#FEFECE" filter="url(#f1b8ilwbli8ech)" height="36.2969" style="stroke: #A80036; stroke-width: 1.5;" width="118" x="38" y="308"/><rect fill="#FEFECE" height="5" style="stroke: #A80036; stroke-width: 1.5;" width="10" x="33" y="313"/><rect fill="#FEFECE" height="5" style="stroke: #A80036; stroke-width: 1.5;" width="10" x="33" y="334.2969"/><text fill="#000000" font-family="sans-serif" font-size="14" lengthAdjust="spacingAndGlyphs" textLength="98" x="48" y="330.9951">OP Integration</text><!--MD5=[00d929565f359f4c647dd2c4d11d0359]
link KonaExternal to CeloKonaCelo--><path d="M630.15,95.07 C619.9,103.94 607.22,114.99 596,125 C571.72,146.66 544.26,171.84 525.51,189.15 " fill="none" id="KonaExternal-&gt;CeloKonaCelo" style="stroke: #A80036; stroke-width: 1.0;"/><polygon fill="#A80036" points="521.41,192.93,530.7312,189.7496,525.0785,189.5327,525.2955,183.88,521.41,192.93" style="stroke: #A80036; stroke-width: 1.0;"/><text fill="#000000" font-family="sans-serif" font-size="13" lengthAdjust="spacingAndGlyphs" textLength="49" x="597" y="138.0669">imports</text><!--MD5=[e0dfeaef64ecb7c1e271963eb506c9a1]
link CeloKonaCelo to OPSuccintCelo--><path d="M503.46,229.16 C503.98,248.74 504.83,280.83 505.4,302.43 " fill="none" id="CeloKonaCelo-&gt;OPSuccintCelo" style="stroke: #A80036; stroke-width: 1.0;"/><polygon fill="#A80036" points="505.54,307.68,509.3073,298.5802,505.4115,302.6817,501.31,298.7858,505.54,307.68" style="stroke: #A80036; stroke-width: 1.0;"/><text fill="#000000" font-family="sans-serif" font-size="13" lengthAdjust="spacingAndGlyphs" textLength="49" x="506" y="274.0669">imports</text><!--MD5=[f27d00ce58544ee430219e46d3f296d2]
link KonaExternal to OPSuccintExternal--><path d="M651.57,95.26 C653.72,118.97 657.61,161.66 659.98,187.75 " fill="none" id="KonaExternal-&gt;OPSuccintExternal" style="stroke: #A80036; stroke-width: 1.0;"/><polygon fill="#A80036" points="660.43,192.74,663.5891,183.4115,659.9722,187.761,655.6227,184.1441,660.43,192.74" style="stroke: #A80036; stroke-width: 1.0;"/><text fill="#000000" font-family="sans-serif" font-size="13" lengthAdjust="spacingAndGlyphs" textLength="49" x="657" y="138.0669">imports</text><!--MD5=[27ec6532b9f905cd2adca3f91e464d27]
link KonaExternal to OPSuccintCelo--><path d="M677.74,91.85 C698.02,103.92 723.29,123.64 731,150 C743.86,193.94 757.99,216.03 731,253 C691.76,306.75 611.87,321.29 558.62,324.73 " fill="none" id="KonaExternal-&gt;OPSuccintCelo" style="stroke: #A80036; stroke-width: 1.0;"/><polygon fill="#A80036" points="553.56,325.03,562.784,328.4822,558.551,324.7297,562.3035,320.4967,553.56,325.03" style="stroke: #A80036; stroke-width: 1.0;"/><text fill="#000000" font-family="sans-serif" font-size="13" lengthAdjust="spacingAndGlyphs" textLength="49" x="747" y="215.5669">imports</text><!--MD5=[ab7a25c2f2e270f9fe3ed4bef39032cc]
link OPSuccintExternal to OPSuccintCelo--><path d="M638.31,229.16 C610.28,249.46 563.68,283.22 533.92,304.77 " fill="none" id="OPSuccintExternal-&gt;OPSuccintCelo" style="stroke: #A80036; stroke-width: 1.0;"/><polygon fill="#A80036" points="529.66,307.86,539.2939,305.8135,533.7074,304.9242,534.5967,299.3377,529.66,307.86" style="stroke: #A80036; stroke-width: 1.0;"/><text fill="#000000" font-family="sans-serif" font-size="13" lengthAdjust="spacingAndGlyphs" textLength="24" x="595" y="274.0669">fork</text><!--MD5=[985c716e33ada0ff27446afddbaeb96a]
link CeloKonaCelo to CeloKonaEspresso--><path d="M480.83,229.16 C454.67,249.41 411.23,283.02 383.38,304.59 " fill="none" id="CeloKonaCelo-&gt;CeloKonaEspresso" style="stroke: #A80036; stroke-width: 1.0;"/><polygon fill="#A80036" points="379.38,307.68,388.9476,305.3431,383.3367,304.6232,384.0567,299.0123,379.38,307.68" style="stroke: #A80036; stroke-width: 1.0;"/><text fill="#000000" font-family="sans-serif" font-size="13" lengthAdjust="spacingAndGlyphs" textLength="24" x="440" y="274.0669">fork</text><!--MD5=[618bc08e75dc1382679aa4a556aa7a57]
link OPSuccintCelo to OPSuccintEspresso--><path d="M474.23,344.03 C448.3,357.74 410.6,377.25 377,393 C356.46,402.63 333.42,412.6 313.75,420.87 " fill="none" id="OPSuccintCelo-&gt;OPSuccintEspresso" style="stroke: #A80036; stroke-width: 1.0;"/><polygon fill="#A80036" points="308.83,422.93,318.6764,423.15,313.4433,421.0019,315.5914,415.7687,308.83,422.93" style="stroke: #A80036; stroke-width: 1.0;"/><text fill="#000000" font-family="sans-serif" font-size="13" lengthAdjust="spacingAndGlyphs" textLength="24" x="411" y="389.0669">fork</text><!--MD5=[ceea2194ba208821fc0d6ca165f4d57c]
link KonaExternal to KonaEspresso--><path d="M622.3,85.43 C581.68,96.79 504.06,120.33 442,150 C418.3,161.33 393.17,177.19 374.57,189.75 " fill="none" id="KonaExternal-&gt;KonaEspresso" style="stroke: #A80036; stroke-width: 1.0;"/><polygon fill="#A80036" points="369.99,192.87,379.6824,191.1215,374.126,190.0604,375.187,184.504,369.99,192.87" style="stroke: #A80036; stroke-width: 1.0;"/><text fill="#000000" font-family="sans-serif" font-size="13" lengthAdjust="spacingAndGlyphs" textLength="24" x="499" y="138.0669">fork</text><!--MD5=[db8b6796632c7c281dde26649e5188ca]
link OpIntegration to OPSuccintEspresso--><path d="M99,344.17 C101.62,359.01 107.57,380.06 121,393 C146.02,417.1 183.45,428.84 214.15,434.56 " fill="none" id="OpIntegration-&gt;OPSuccintEspresso" style="stroke: #A80036; stroke-width: 1.0;"/><polygon fill="#A80036" points="219.41,435.5,211.2439,429.9941,214.4864,434.6294,209.851,437.8719,219.41,435.5" style="stroke: #A80036; stroke-width: 1.0;"/><text fill="#000000" font-family="sans-serif" font-size="13" lengthAdjust="spacingAndGlyphs" textLength="94" x="122" y="389.0669">docker images</text><!--MD5=[f171108a3bdd2f3ded5583920441615e]
link KonaEspresso to CeloKonaEspresso--><path d="M343.44,229.18 C341.88,242.55 340.6,261.54 343,278 C344.2,286.21 346.51,294.99 348.92,302.71 " fill="none" id="KonaEspresso-&gt;CeloKonaEspresso" style="stroke: #A80036; stroke-width: 1.0;"/><polygon fill="#A80036" points="350.59,307.86,351.6183,298.065,349.0475,303.1039,344.0086,300.533,350.59,307.86" style="stroke: #A80036; stroke-width: 1.0;"/><text fill="#000000" font-family="sans-serif" font-size="13" lengthAdjust="spacingAndGlyphs" textLength="49" x="344" y="274.0669">imports</text><!--MD5=[ac5820347774c9169946627a5d68dce0]
link CeloKonaEspresso to OPSuccintEspresso--><path d="M343.33,344.16 C327.47,364.07 301.31,396.93 284.11,418.52 " fill="none" id="CeloKonaEspresso-&gt;OPSuccintEspresso" style="stroke: #A80036; stroke-width: 1.0;"/><polygon fill="#A80036" points="280.8,422.68,289.5437,418.1471,283.9217,418.7743,283.2945,413.1523,280.8,422.68" style="stroke: #A80036; stroke-width: 1.0;"/><text fill="#000000" font-family="sans-serif" font-size="13" lengthAdjust="spacingAndGlyphs" textLength="49" x="319" y="389.0669">imports</text><!--MD5=[b956c7378ba0b7fb6d5e0189097b53cd]
link KonaEspresso to OPSuccintEspresso--><path d="M318.09,228.49 C293.13,245.03 258.21,273.03 243,308 C227.17,344.4 243.05,390.82 255.43,417.8 " fill="none" id="KonaEspresso-&gt;OPSuccintEspresso" style="stroke: #A80036; stroke-width: 1.0;"/><polygon fill="#A80036" points="257.7,422.6,257.4916,412.7533,255.5731,418.0749,250.2515,416.1564,257.7,422.6" style="stroke: #A80036; stroke-width: 1.0;"/><text fill="#000000" font-family="sans-serif" font-size="13" lengthAdjust="spacingAndGlyphs" textLength="49" x="244" y="330.5669">imports</text><!--MD5=[bd12515e73684974e25ec1d665e63dc5]
@startuml

package "External Dependencies" {
  [ Kona ] as KonaExternal
  [OP Succinct] as OPSuccintExternal
}

package "Celo" {
  [Celo Kona] as CeloKonaCelo
  [OP Succint] as OPSuccintCelo
}

package "Espresso" {
  [Kona] as KonaEspresso
  [Celo Kona] as CeloKonaEspresso
  [OP Succint] as OPSuccintEspresso
  [OP Integration] as OpIntegration
}


KonaExternal- -> CeloKonaCelo: imports

CeloKonaCelo- -> OPSuccintCelo : imports
KonaExternal- -> OPSuccintExternal : imports
KonaExternal - -> OPSuccintCelo: imports

OPSuccintExternal - -> OPSuccintCelo: fork
CeloKonaCelo - -> CeloKonaEspresso: fork
OPSuccintCelo - -> OPSuccintEspresso: fork
KonaExternal - -> KonaEspresso: fork

OpIntegration - -> OPSuccintEspresso : docker images
KonaEspresso   - -> CeloKonaEspresso: imports
CeloKonaEspresso  - -> OPSuccintEspresso : imports
KonaEspresso - -> OPSuccintEspresso : imports


@enduml

PlantUML version 1.2020.02(Sun Mar 01 07:22:07 CLST 2020)
(GPL source distribution)
Java Runtime: OpenJDK Runtime Environment
JVM: OpenJDK 64-Bit Server VM
Java Version: 11.0.29+7-post-Ubuntu-1ubuntu122.04
Operating System: Linux
Default Encoding: UTF-8
Language: es
Country: CL
--></g></svg>