<?xml version="1.0" encoding="UTF-8" standalone="no"?><svg xmlns="http://www.w3.org/2000/svg" xmlns:xlink="http://www.w3.org/1999/xlink" contentScriptType="application/ecmascript" contentStyleType="text/css" height="734px" preserveAspectRatio="none" style="width:895px;height:734px;" version="1.1" viewBox="0 0 895 734" width="895px" zoomAndPan="magnify"><defs><filter height="300%" id="fib62g2i4j066" width="300%" x="-1" y="-1"><feGaussianBlur result="blurOut" stdDeviation="2.0"/><feColorMatrix in="blurOut" result="blurOut2" type="matrix" values="0 0 0 0 0 0 0 0 0 0 0 0 0 0 0 0 0 0 .4 0"/><feOffset dx="4.0" dy="4.0" in="blurOut2" result="blurOut3"/><feBlend in="SourceGraphic" in2="blurOut3" mode="normal"/></filter></defs><g><!--MD5=[7f8134b78695bef3e790eae6add485b3]
cluster External Dependencies--><polygon fill="#FFFFFF" filter="url(#fib62g2i4j066)" points="22,24,210,24,217,46.2969,220,46.2969,220,245,22,245,22,24" style="stroke: #000000; stroke-width: 1.5;"/><line style="stroke: #000000; stroke-width: 1.5;" x1="22" x2="217" y1="46.2969" y2="46.2969"/><text fill="#000000" font-family="sans-serif" font-size="14" font-weight="bold" lengthAdjust="spacingAndGlyphs" textLength="182" x="26" y="38.9951">External Dependencies</text><!--MD5=[2326b82e06ebec4f4256631066555e2e]
cluster Celo--><polygon fill="#FFFFFF" filter="url(#fib62g2i4j066)" points="244,158,285,158,292,180.2969,487,180.2969,487,494,244,494,244,158" style="stroke: #000000; stroke-width: 1.5;"/><line style="stroke: #000000; stroke-width: 1.5;" x1="244" x2="292" y1="180.2969" y2="180.2969"/><text fill="#000000" font-family="sans-serif" font-size="14" font-weight="bold" lengthAdjust="spacingAndGlyphs" textLength="35" x="248" y="172.9951">Celo</text><!--MD5=[b61a95a0f47cab54156748d3697fd10e]
cluster Espresso--><polygon fill="#FFFFFF" filter="url(#fib62g2i4j066)" points="511,407,590,407,597,429.2969,873,429.2969,873,722,511,722,511,407" style="stroke: #000000; stroke-width: 1.5;"/><line style="stroke: #000000; stroke-width: 1.5;" x1="511" x2="597" y1="429.2969" y2="429.2969"/><text fill="#000000" font-family="sans-serif" font-size="14" font-weight="bold" lengthAdjust="spacingAndGlyphs" textLength="73" x="515" y="421.9951">Espresso</text><!--MD5=[62d64fdbb6d65435b204ea8b9f39a9eb]
entity KonaExternal--><rect fill="#FEFECE" filter="url(#fib62g2i4j066)" height="36.2969" style="stroke: #A80036; stroke-width: 1.5;" width="55" x="136.5" y="59"/><rect fill="#FEFECE" height="5" style="stroke: #A80036; stroke-width: 1.5;" width="10" x="131.5" y="64"/><rect fill="#FEFECE" height="5" style="stroke: #A80036; stroke-width: 1.5;" width="10" x="131.5" y="85.2969"/><text fill="#000000" font-family="sans-serif" font-size="14" lengthAdjust="spacingAndGlyphs" textLength="35" x="146.5" y="81.9951">Kona</text><!--MD5=[3c51b299848d9a7445b331f3dfe515c9]
entity OPSuccintExternal--><rect fill="#FEFECE" filter="url(#fib62g2i4j066)" height="36.2969" style="stroke: #A80036; stroke-width: 1.5;" width="103" x="100.5" y="193"/><rect fill="#FEFECE" height="5" style="stroke: #A80036; stroke-width: 1.5;" width="10" x="95.5" y="198"/><rect fill="#FEFECE" height="5" style="stroke: #A80036; stroke-width: 1.5;" width="10" x="95.5" y="219.2969"/><text fill="#000000" font-family="sans-serif" font-size="14" lengthAdjust="spacingAndGlyphs" textLength="83" x="110.5" y="215.9951">OP Succinct</text><!--MD5=[def1516f320ac207971a3c1c52649dc2]
entity KonaCelo--><rect fill="#FEFECE" filter="url(#fib62g2i4j066)" height="36.2969" style="stroke: #A80036; stroke-width: 1.5;" width="55" x="329.5" y="193"/><rect fill="#FEFECE" height="5" style="stroke: #A80036; stroke-width: 1.5;" width="10" x="324.5" y="198"/><rect fill="#FEFECE" height="5" style="stroke: #A80036; stroke-width: 1.5;" width="10" x="324.5" y="219.2969"/><text fill="#000000" font-family="sans-serif" font-size="14" lengthAdjust="spacingAndGlyphs" textLength="35" x="339.5" y="215.9951">Kona</text><!--MD5=[d366bb1aa52aa55ddc63036c365bcee6]
entity CeloKonaCelo--><rect fill="#FEFECE" filter="url(#fib62g2i4j066)" height="36.2969" style="stroke: #A80036; stroke-width: 1.5;" width="90" x="381" y="308"/><rect fill="#FEFECE" height="5" style="stroke: #A80036; stroke-width: 1.5;" width="10" x="376" y="313"/><rect fill="#FEFECE" height="5" style="stroke: #A80036; stroke-width: 1.5;" width="10" x="376" y="334.2969"/><text fill="#000000" font-family="sans-serif" font-size="14" lengthAdjust="spacingAndGlyphs" textLength="70" x="391" y="330.9951">Celo Kona</text><!--MD5=[3deccaa503357f6155bdf28d1b907c2f]
entity OPSuccintCelo--><rect fill="#FEFECE" filter="url(#fib62g2i4j066)" height="36.2969" style="stroke: #A80036; stroke-width: 1.5;" width="95" x="295.5" y="442"/><rect fill="#FEFECE" height="5" style="stroke: #A80036; stroke-width: 1.5;" width="10" x="290.5" y="447"/><rect fill="#FEFECE" height="5" style="stroke: #A80036; stroke-width: 1.5;" width="10" x="290.5" y="468.2969"/><text fill="#000000" font-family="sans-serif" font-size="14" lengthAdjust="spacingAndGlyphs" textLength="75" x="305.5" y="464.9951">OP Succint</text><!--MD5=[2df2aa6236fab0ad4f58ac5434203f6a]
entity KonaEspresso--><rect fill="#FEFECE" filter="url(#fib62g2i4j066)" height="36.2969" style="stroke: #A80036; stroke-width: 1.5;" width="55" x="648.5" y="557"/><rect fill="#FEFECE" height="5" style="stroke: #A80036; stroke-width: 1.5;" width="10" x="643.5" y="562"/><rect fill="#FEFECE" height="5" style="stroke: #A80036; stroke-width: 1.5;" width="10" x="643.5" y="583.2969"/><text fill="#000000" font-family="sans-serif" font-size="14" lengthAdjust="spacingAndGlyphs" textLength="35" x="658.5" y="579.9951">Kona</text><!--MD5=[602bd0455e93a0fc726b38ec90e95dd8]
entity CeloKonaEspresso--><rect fill="#FEFECE" filter="url(#fib62g2i4j066)" height="36.2969" style="stroke: #A80036; stroke-width: 1.5;" width="90" x="527" y="442"/><rect fill="#FEFECE" height="5" style="stroke: #A80036; stroke-width: 1.5;" width="10" x="522" y="447"/><rect fill="#FEFECE" height="5" style="stroke: #A80036; stroke-width: 1.5;" width="10" x="522" y="468.2969"/><text fill="#000000" font-family="sans-serif" font-size="14" lengthAdjust="spacingAndGlyphs" textLength="70" x="537" y="464.9951">Celo Kona</text><!--MD5=[2f12b53f055ef9d20cc47b1739a47e1e]
entity OPSuccintEspresso--><rect fill="#FEFECE" filter="url(#fib62g2i4j066)" height="36.2969" style="stroke: #A80036; stroke-width: 1.5;" width="95" x="558.5" y="670"/><rect fill="#FEFECE" height="5" style="stroke: #A80036; stroke-width: 1.5;" width="10" x="553.5" y="675"/><rect fill="#FEFECE" height="5" style="stroke: #A80036; stroke-width: 1.5;" width="10" x="553.5" y="696.2969"/><text fill="#000000" font-family="sans-serif" font-size="14" lengthAdjust="spacingAndGlyphs" textLength="75" x="568.5" y="692.9951">OP Succint</text><!--MD5=[e55448d9112c9dfdfeba4f6a3ae93896]
entity OpIntegration--><rect fill="#FEFECE" filter="url(#fib62g2i4j066)" height="36.2969" style="stroke: #A80036; stroke-width: 1.5;" width="118" x="739" y="557"/><rect fill="#FEFECE" height="5" style="stroke: #A80036; stroke-width: 1.5;" width="10" x="734" y="562"/><rect fill="#FEFECE" height="5" style="stroke: #A80036; stroke-width: 1.5;" width="10" x="734" y="583.2969"/><text fill="#000000" font-family="sans-serif" font-size="14" lengthAdjust="spacingAndGlyphs" textLength="98" x="749" y="579.9951">OP Integration</text><!--MD5=[21066575c8ec7a876eca28596f2ab270]
link KonaCelo to CeloKonaCelo--><path d="M367.48,229.16 C379.59,248.99 399.53,281.65 412.72,303.25 " fill="none" id="KonaCelo-&gt;CeloKonaCelo" style="stroke: #A80036; stroke-width: 1.0;"/><polygon fill="#A80036" points="415.42,307.68,414.1573,297.9124,412.8203,303.409,407.3237,302.072,415.42,307.68" style="stroke: #A80036; stroke-width: 1.0;"/><text fill="#000000" font-family="sans-serif" font-size="13" lengthAdjust="spacingAndGlyphs" textLength="49" x="396" y="274.0669">imports</text><!--MD5=[e0dfeaef64ecb7c1e271963eb506c9a1]
link CeloKonaCelo to OPSuccintCelo--><path d="M415.15,344.26 C400.11,368.17 372.95,411.38 356.58,437.4 " fill="none" id="CeloKonaCelo-&gt;OPSuccintCelo" style="stroke: #A80036; stroke-width: 1.0;"/><polygon fill="#A80036" points="353.85,441.74,362.0303,436.2552,356.5141,437.5088,355.2604,431.9927,353.85,441.74" style="stroke: #A80036; stroke-width: 1.0;"/><text fill="#000000" font-family="sans-serif" font-size="13" lengthAdjust="spacingAndGlyphs" textLength="49" x="395" y="387.0669">imports</text><!--MD5=[f27d00ce58544ee430219e46d3f296d2]
link KonaExternal to OPSuccintExternal--><path d="M162.43,95.26 C160.28,118.97 156.39,161.66 154.02,187.75 " fill="none" id="KonaExternal-&gt;OPSuccintExternal" style="stroke: #A80036; stroke-width: 1.0;"/><polygon fill="#A80036" points="153.57,192.74,158.3773,184.1441,154.0278,187.761,150.4109,183.4115,153.57,192.74" style="stroke: #A80036; stroke-width: 1.0;"/><text fill="#000000" font-family="sans-serif" font-size="13" lengthAdjust="spacingAndGlyphs" textLength="49" x="161" y="138.0669">imports</text><!--MD5=[cee36f56541e33dfe64da4015ab34033]
link KonaCelo to OPSuccintCelo--><path d="M346.32,229.24 C335.47,247.87 319.37,278.8 313,308 C303.03,353.67 320.68,407.41 332.87,436.88 " fill="none" id="KonaCelo-&gt;OPSuccintCelo" style="stroke: #A80036; stroke-width: 1.0;"/><polygon fill="#A80036" points="334.92,441.75,335.1031,431.9028,332.9746,437.144,327.7335,435.0155,334.92,441.75" style="stroke: #A80036; stroke-width: 1.0;"/><text fill="#000000" font-family="sans-serif" font-size="13" lengthAdjust="spacingAndGlyphs" textLength="49" x="314" y="330.5669">imports</text><!--MD5=[ae80ee1bd90e50b9a58442a44dc34fb7]
link KonaExternal to KonaCelo--><path d="M189.23,95.26 C224.87,119.63 289.82,164.05 327.6,189.89 " fill="none" id="KonaExternal-&gt;KonaCelo" style="stroke: #A80036; stroke-width: 1.0;"/><polygon fill="#A80036" points="332.07,192.95,326.9062,184.5634,327.9452,190.124,322.3846,191.1631,332.07,192.95" style="stroke: #A80036; stroke-width: 1.0;"/><text fill="#000000" font-family="sans-serif" font-size="13" lengthAdjust="spacingAndGlyphs" textLength="24" x="255" y="138.0669">fork</text><!--MD5=[ab7a25c2f2e270f9fe3ed4bef39032cc]
link OPSuccintExternal to OPSuccintCelo--><path d="M165.43,229.37 C199.55,273.5 289.51,389.82 326.62,437.82 " fill="none" id="OPSuccintExternal-&gt;OPSuccintCelo" style="stroke: #A80036; stroke-width: 1.0;"/><polygon fill="#A80036" points="329.84,441.98,327.5031,432.4124,326.7832,438.0233,321.1723,437.3033,329.84,441.98" style="stroke: #A80036; stroke-width: 1.0;"/><text fill="#000000" font-family="sans-serif" font-size="13" lengthAdjust="spacingAndGlyphs" textLength="24" x="254" y="330.5669">fork</text><!--MD5=[54126c8adfc229cc273e93303989e70b]
link KonaCelo to KonaEspresso--><path d="M384.57,221.89 C441.66,243.93 572.71,302.82 635,399 C666.16,447.11 673.71,516.27 675.49,551.51 " fill="none" id="KonaCelo-&gt;KonaEspresso" style="stroke: #A80036; stroke-width: 1.0;"/><polygon fill="#A80036" points="675.73,556.86,679.3148,547.6867,675.5017,551.8652,671.3232,548.0521,675.73,556.86" style="stroke: #A80036; stroke-width: 1.0;"/><text fill="#000000" font-family="sans-serif" font-size="13" lengthAdjust="spacingAndGlyphs" textLength="24" x="630" y="387.0669">fork</text><!--MD5=[985c716e33ada0ff27446afddbaeb96a]
link CeloKonaCelo to CeloKonaEspresso--><path d="M445.09,344.26 C471.87,368.47 520.51,412.45 549.17,438.36 " fill="none" id="CeloKonaCelo-&gt;CeloKonaEspresso" style="stroke: #A80036; stroke-width: 1.0;"/><polygon fill="#A80036" points="552.91,441.74,548.9135,432.7385,549.1999,438.3881,543.5504,438.6746,552.91,441.74" style="stroke: #A80036; stroke-width: 1.0;"/><text fill="#000000" font-family="sans-serif" font-size="13" lengthAdjust="spacingAndGlyphs" textLength="24" x="495" y="387.0669">fork</text><!--MD5=[618bc08e75dc1382679aa4a556aa7a57]
link OPSuccintCelo to OPSuccintEspresso--><path d="M363.2,478.36 C411.03,519.46 531.02,622.57 582.23,666.57 " fill="none" id="OPSuccintCelo-&gt;OPSuccintEspresso" style="stroke: #A80036; stroke-width: 1.0;"/><polygon fill="#A80036" points="586.09,669.89,581.8764,660.988,582.2998,666.629,576.6588,667.0523,586.09,669.89" style="stroke: #A80036; stroke-width: 1.0;"/><text fill="#000000" font-family="sans-serif" font-size="13" lengthAdjust="spacingAndGlyphs" textLength="24" x="497" y="579.5669">fork</text><!--MD5=[db8b6796632c7c281dde26649e5188ca]
link OpIntegration to OPSuccintEspresso--><path d="M775.07,593.05 C756.41,606.56 729.15,625.52 704,640 C686.81,649.9 667.22,659.59 650.09,667.58 " fill="none" id="OpIntegration-&gt;OPSuccintEspresso" style="stroke: #A80036; stroke-width: 1.0;"/><polygon fill="#A80036" points="645.33,669.79,655.1776,669.6326,649.866,667.6865,651.8121,662.375,645.33,669.79" style="stroke: #A80036; stroke-width: 1.0;"/><text fill="#000000" font-family="sans-serif" font-size="13" lengthAdjust="spacingAndGlyphs" textLength="94" x="731" y="636.0669">docker images</text><!--MD5=[4736e88e8ee4acea9c79c52cfbd5687a]
link CeloKonaEspresso to KonaEspresso--><path d="M576.09,478 C580.22,492.34 587.76,512.74 600,527 C611.9,540.87 628.94,551.93 643.88,559.83 " fill="none" id="CeloKonaEspresso-&gt;KonaEspresso" style="stroke: #A80036; stroke-width: 1.0;"/><polygon fill="#A80036" points="648.43,562.17,642.2569,554.4958,643.9839,559.8826,638.5971,561.6096,648.43,562.17" style="stroke: #A80036; stroke-width: 1.0;"/><text fill="#000000" font-family="sans-serif" font-size="13" lengthAdjust="spacingAndGlyphs" textLength="49" x="601" y="523.0669">imports</text><!--MD5=[ac5820347774c9169946627a5d68dce0]
link CeloKonaEspresso to OPSuccintEspresso--><path d="M571.9,478.22 C572.01,503.54 573.2,552.24 580,593 C584.17,618.04 592.37,645.98 598.46,664.85 " fill="none" id="CeloKonaEspresso-&gt;OPSuccintEspresso" style="stroke: #A80036; stroke-width: 1.0;"/><polygon fill="#A80036" points="600.11,669.92,601.1118,660.1222,598.5546,665.1681,593.5087,662.6109,600.11,669.92" style="stroke: #A80036; stroke-width: 1.0;"/><text fill="#000000" font-family="sans-serif" font-size="13" lengthAdjust="spacingAndGlyphs" textLength="49" x="581" y="579.5669">imports</text><!--MD5=[b956c7378ba0b7fb6d5e0189097b53cd]
link KonaEspresso to OPSuccintEspresso--><path d="M665.06,593.34 C652.79,612.81 632.85,644.42 619.59,665.46 " fill="none" id="KonaEspresso-&gt;OPSuccintEspresso" style="stroke: #A80036; stroke-width: 1.0;"/><polygon fill="#A80036" points="616.86,669.78,625.0353,664.2878,619.5203,665.5464,618.2616,660.0314,616.86,669.78" style="stroke: #A80036; stroke-width: 1.0;"/><text fill="#000000" font-family="sans-serif" font-size="13" lengthAdjust="spacingAndGlyphs" textLength="49" x="646" y="636.0669">imports</text><!--MD5=[1e16a48cb350e0566289851a1313cc3d]
@startuml

package "External Dependencies" {
  [ Kona ] as KonaExternal
  [OP Succinct] as OPSuccintExternal
}

package "Celo" {
  [Kona] as KonaCelo
  [Celo Kona] as CeloKonaCelo
  [OP Succint] as OPSuccintCelo
}

package "Espresso" {
  [Kona] as KonaEspresso
  [Celo Kona] as CeloKonaEspresso
  [OP Succint] as OPSuccintEspresso
  [OP Integration] as OpIntegration
}


KonaCelo- -> CeloKonaCelo: imports

CeloKonaCelo- -> OPSuccintCelo : imports
KonaExternal- -> OPSuccintExternal : imports
KonaCelo  - -> OPSuccintCelo: imports

KonaExternal - -> KonaCelo: fork
OPSuccintExternal - -> OPSuccintCelo: fork
KonaCelo - -> KonaEspresso: fork
CeloKonaCelo - -> CeloKonaEspresso: fork
OPSuccintCelo - -> OPSuccintEspresso: fork

OpIntegration - -> OPSuccintEspresso : docker images
CeloKonaEspresso  - -> KonaEspresso: imports
CeloKonaEspresso  - -> OPSuccintEspresso : imports
KonaEspresso - -> OPSuccintEspresso : imports


@enduml

PlantUML version 1.2020.02(Sun Mar 01 07:22:07 CLST 2020)
(GPL source distribution)
Java Runtime: OpenJDK Runtime Environment
JVM: OpenJDK 64-Bit Server VM
Java Version: 11.0.29+7-post-Ubuntu-1ubuntu122.04
Operating System: Linux
Default Encoding: UTF-8
Language: es
Country: CL
--></g></svg>