<?xml version="1.0" encoding="UTF-8" standalone="no"?><svg xmlns="http://www.w3.org/2000/svg" xmlns:xlink="http://www.w3.org/1999/xlink" contentScriptType="application/ecmascript" contentStyleType="text/css" height="621px" preserveAspectRatio="none" style="width:929px;height:621px;" version="1.1" viewBox="0 0 929 621" width="929px" zoomAndPan="magnify"><defs><filter height="300%" id="f1srn8g2aoq7be" width="300%" x="-1" y="-1"><feGaussianBlur result="blurOut" stdDeviation="2.0"/><feColorMatrix in="blurOut" result="blurOut2" type="matrix" values="0 0 0 0 0 0 0 0 0 0 0 0 0 0 0 0 0 0 .4 0"/><feOffset dx="4.0" dy="4.0" in="blurOut2" result="blurOut3"/><feBlend in="SourceGraphic" in2="blurOut3" mode="normal"/></filter></defs><g><!--MD5=[7f8134b78695bef3e790eae6add485b3]
cluster External Dependencies--><polygon fill="#FFFFFF" filter="url(#f1srn8g2aoq7be)" points="709,24,897,24,904,46.2969,907,46.2969,907,245,709,245,709,24" style="stroke: #000000; stroke-width: 1.5;"/><line style="stroke: #000000; stroke-width: 1.5;" x1="709" x2="904" y1="46.2969" y2="46.2969"/><text fill="#000000" font-family="sans-serif" font-size="14" font-weight="bold" lengthAdjust="spacingAndGlyphs" textLength="182" x="713" y="38.9951">External Dependencies</text><!--MD5=[2326b82e06ebec4f4256631066555e2e]
cluster Celo--><polygon fill="#FFFFFF" filter="url(#f1srn8g2aoq7be)" points="442,158,483,158,490,180.2969,685,180.2969,685,494,442,494,442,158" style="stroke: #000000; stroke-width: 1.5;"/><line style="stroke: #000000; stroke-width: 1.5;" x1="442" x2="490" y1="180.2969" y2="180.2969"/><text fill="#000000" font-family="sans-serif" font-size="14" font-weight="bold" lengthAdjust="spacingAndGlyphs" textLength="35" x="446" y="172.9951">Celo</text><!--MD5=[b61a95a0f47cab54156748d3697fd10e]
cluster Espresso--><polygon fill="#FFFFFF" filter="url(#f1srn8g2aoq7be)" points="22,294,101,294,108,316.2969,418,316.2969,418,609,22,609,22,294" style="stroke: #000000; stroke-width: 1.5;"/><line style="stroke: #000000; stroke-width: 1.5;" x1="22" x2="108" y1="316.2969" y2="316.2969"/><text fill="#000000" font-family="sans-serif" font-size="14" font-weight="bold" lengthAdjust="spacingAndGlyphs" textLength="73" x="26" y="308.9951">Espresso</text><!--MD5=[62d64fdbb6d65435b204ea8b9f39a9eb]
entity KonaExternal--><rect fill="#FEFECE" filter="url(#f1srn8g2aoq7be)" height="36.2969" style="stroke: #A80036; stroke-width: 1.5;" width="55" x="728.5" y="59"/><rect fill="#FEFECE" height="5" style="stroke: #A80036; stroke-width: 1.5;" width="10" x="723.5" y="64"/><rect fill="#FEFECE" height="5" style="stroke: #A80036; stroke-width: 1.5;" width="10" x="723.5" y="85.2969"/><text fill="#000000" font-family="sans-serif" font-size="14" lengthAdjust="spacingAndGlyphs" textLength="35" x="738.5" y="81.9951">Kona</text><!--MD5=[3c51b299848d9a7445b331f3dfe515c9]
entity OPSuccintExternal--><rect fill="#FEFECE" filter="url(#f1srn8g2aoq7be)" height="36.2969" style="stroke: #A80036; stroke-width: 1.5;" width="103" x="725.5" y="193"/><rect fill="#FEFECE" height="5" style="stroke: #A80036; stroke-width: 1.5;" width="10" x="720.5" y="198"/><rect fill="#FEFECE" height="5" style="stroke: #A80036; stroke-width: 1.5;" width="10" x="720.5" y="219.2969"/><text fill="#000000" font-family="sans-serif" font-size="14" lengthAdjust="spacingAndGlyphs" textLength="83" x="735.5" y="215.9951">OP Succinct</text><!--MD5=[def1516f320ac207971a3c1c52649dc2]
entity KonaCelo--><rect fill="#FEFECE" filter="url(#f1srn8g2aoq7be)" height="36.2969" style="stroke: #A80036; stroke-width: 1.5;" width="55" x="539.5" y="193"/><rect fill="#FEFECE" height="5" style="stroke: #A80036; stroke-width: 1.5;" width="10" x="534.5" y="198"/><rect fill="#FEFECE" height="5" style="stroke: #A80036; stroke-width: 1.5;" width="10" x="534.5" y="219.2969"/><text fill="#000000" font-family="sans-serif" font-size="14" lengthAdjust="spacingAndGlyphs" textLength="35" x="549.5" y="215.9951">Kona</text><!--MD5=[d366bb1aa52aa55ddc63036c365bcee6]
entity CeloKonaCelo--><rect fill="#FEFECE" filter="url(#f1srn8g2aoq7be)" height="36.2969" style="stroke: #A80036; stroke-width: 1.5;" width="90" x="458" y="329"/><rect fill="#FEFECE" height="5" style="stroke: #A80036; stroke-width: 1.5;" width="10" x="453" y="334"/><rect fill="#FEFECE" height="5" style="stroke: #A80036; stroke-width: 1.5;" width="10" x="453" y="355.2969"/><text fill="#000000" font-family="sans-serif" font-size="14" lengthAdjust="spacingAndGlyphs" textLength="70" x="468" y="351.9951">Celo Kona</text><!--MD5=[3deccaa503357f6155bdf28d1b907c2f]
entity OPSuccintCelo--><rect fill="#FEFECE" filter="url(#f1srn8g2aoq7be)" height="36.2969" style="stroke: #A80036; stroke-width: 1.5;" width="95" x="534.5" y="442"/><rect fill="#FEFECE" height="5" style="stroke: #A80036; stroke-width: 1.5;" width="10" x="529.5" y="447"/><rect fill="#FEFECE" height="5" style="stroke: #A80036; stroke-width: 1.5;" width="10" x="529.5" y="468.2969"/><text fill="#000000" font-family="sans-serif" font-size="14" lengthAdjust="spacingAndGlyphs" textLength="75" x="544.5" y="464.9951">OP Succint</text><!--MD5=[2df2aa6236fab0ad4f58ac5434203f6a]
entity KonaEspresso--><rect fill="#FEFECE" filter="url(#f1srn8g2aoq7be)" height="36.2969" style="stroke: #A80036; stroke-width: 1.5;" width="55" x="323.5" y="329"/><rect fill="#FEFECE" height="5" style="stroke: #A80036; stroke-width: 1.5;" width="10" x="318.5" y="334"/><rect fill="#FEFECE" height="5" style="stroke: #A80036; stroke-width: 1.5;" width="10" x="318.5" y="355.2969"/><text fill="#000000" font-family="sans-serif" font-size="14" lengthAdjust="spacingAndGlyphs" textLength="35" x="333.5" y="351.9951">Kona</text><!--MD5=[602bd0455e93a0fc726b38ec90e95dd8]
entity CeloKonaEspresso--><rect fill="#FEFECE" filter="url(#f1srn8g2aoq7be)" height="36.2969" style="stroke: #A80036; stroke-width: 1.5;" width="90" x="312" y="442"/><rect fill="#FEFECE" height="5" style="stroke: #A80036; stroke-width: 1.5;" width="10" x="307" y="447"/><rect fill="#FEFECE" height="5" style="stroke: #A80036; stroke-width: 1.5;" width="10" x="307" y="468.2969"/><text fill="#000000" font-family="sans-serif" font-size="14" lengthAdjust="spacingAndGlyphs" textLength="70" x="322" y="464.9951">Celo Kona</text><!--MD5=[2f12b53f055ef9d20cc47b1739a47e1e]
entity OPSuccintEspresso--><rect fill="#FEFECE" filter="url(#f1srn8g2aoq7be)" height="36.2969" style="stroke: #A80036; stroke-width: 1.5;" width="95" x="219.5" y="557"/><rect fill="#FEFECE" height="5" style="stroke: #A80036; stroke-width: 1.5;" width="10" x="214.5" y="562"/><rect fill="#FEFECE" height="5" style="stroke: #A80036; stroke-width: 1.5;" width="10" x="214.5" y="583.2969"/><text fill="#000000" font-family="sans-serif" font-size="14" lengthAdjust="spacingAndGlyphs" textLength="75" x="229.5" y="579.9951">OP Succint</text><!--MD5=[e55448d9112c9dfdfeba4f6a3ae93896]
entity OpIntegration--><rect fill="#FEFECE" filter="url(#f1srn8g2aoq7be)" height="36.2969" style="stroke: #A80036; stroke-width: 1.5;" width="118" x="38" y="442"/><rect fill="#FEFECE" height="5" style="stroke: #A80036; stroke-width: 1.5;" width="10" x="33" y="447"/><rect fill="#FEFECE" height="5" style="stroke: #A80036; stroke-width: 1.5;" width="10" x="33" y="468.2969"/><text fill="#000000" font-family="sans-serif" font-size="14" lengthAdjust="spacingAndGlyphs" textLength="98" x="48" y="464.9951">OP Integration</text><!--MD5=[21066575c8ec7a876eca28596f2ab270]
link KonaCelo to CeloKonaCelo--><path d="M558.76,229.24 C547.2,253.47 526.13,297.56 513.47,324.08 " fill="none" id="KonaCelo-&gt;CeloKonaCelo" style="stroke: #A80036; stroke-width: 1.0;"/><polygon fill="#A80036" points="511.2,328.82,518.673,322.4048,513.3441,324.3031,511.4459,318.9742,511.2,328.82" style="stroke: #A80036; stroke-width: 1.0;"/><text fill="#000000" font-family="sans-serif" font-size="13" lengthAdjust="spacingAndGlyphs" textLength="49" x="543" y="274.0669">imports</text><!--MD5=[e0dfeaef64ecb7c1e271963eb506c9a1]
link CeloKonaCelo to OPSuccintCelo--><path d="M515.34,365.34 C529.2,384.81 551.7,416.42 566.67,437.46 " fill="none" id="CeloKonaCelo-&gt;OPSuccintCelo" style="stroke: #A80036; stroke-width: 1.0;"/><polygon fill="#A80036" points="569.74,441.78,567.7766,432.1288,566.8392,437.7075,561.2606,436.7701,569.74,441.78" style="stroke: #A80036; stroke-width: 1.0;"/><text fill="#000000" font-family="sans-serif" font-size="13" lengthAdjust="spacingAndGlyphs" textLength="49" x="548" y="408.0669">imports</text><!--MD5=[f27d00ce58544ee430219e46d3f296d2]
link KonaExternal to OPSuccintExternal--><path d="M758.75,95.26 C762.52,118.97 769.31,161.66 773.46,187.75 " fill="none" id="KonaExternal-&gt;OPSuccintExternal" style="stroke: #A80036; stroke-width: 1.0;"/><polygon fill="#A80036" points="774.25,192.74,776.7875,183.2236,773.4651,187.802,768.8867,184.4796,774.25,192.74" style="stroke: #A80036; stroke-width: 1.0;"/><text fill="#000000" font-family="sans-serif" font-size="13" lengthAdjust="spacingAndGlyphs" textLength="49" x="766" y="138.0669">imports</text><!--MD5=[cee36f56541e33dfe64da4015ab34033]
link KonaCelo to OPSuccintCelo--><path d="M582.62,229.26 C589.61,238.09 597.13,249.41 601,261 C622.25,324.7 621.7,346.71 606,412 C603.91,420.7 599.91,429.61 595.78,437.3 " fill="none" id="KonaCelo-&gt;OPSuccintCelo" style="stroke: #A80036; stroke-width: 1.0;"/><polygon fill="#A80036" points="593.2,441.92,601.0674,435.9952,595.6282,437.5492,594.0742,432.11,593.2,441.92" style="stroke: #A80036; stroke-width: 1.0;"/><text fill="#000000" font-family="sans-serif" font-size="13" lengthAdjust="spacingAndGlyphs" textLength="49" x="618" y="351.5669">imports</text><!--MD5=[ae80ee1bd90e50b9a58442a44dc34fb7]
link KonaExternal to KonaCelo--><path d="M731.29,95.26 C696.39,119.63 632.79,164.05 595.79,189.89 " fill="none" id="KonaExternal-&gt;KonaCelo" style="stroke: #A80036; stroke-width: 1.0;"/><polygon fill="#A80036" points="591.42,192.95,601.0865,191.0635,595.5155,190.0817,596.4973,184.5107,591.42,192.95" style="stroke: #A80036; stroke-width: 1.0;"/><text fill="#000000" font-family="sans-serif" font-size="13" lengthAdjust="spacingAndGlyphs" textLength="24" x="684" y="138.0669">fork</text><!--MD5=[ab7a25c2f2e270f9fe3ed4bef39032cc]
link OPSuccintExternal to OPSuccintCelo--><path d="M767.14,229.3 C750.18,258.5 713.63,318.89 676,365 C653.98,391.99 625.25,419.83 605.37,438.14 " fill="none" id="OPSuccintExternal-&gt;OPSuccintCelo" style="stroke: #A80036; stroke-width: 1.0;"/><polygon fill="#A80036" points="601.52,441.67,610.854,438.5273,605.2022,438.2875,605.442,432.6357,601.52,441.67" style="stroke: #A80036; stroke-width: 1.0;"/><text fill="#000000" font-family="sans-serif" font-size="13" lengthAdjust="spacingAndGlyphs" textLength="24" x="733" y="351.5669">fork</text><!--MD5=[54126c8adfc229cc273e93303989e70b]
link KonaCelo to KonaEspresso--><path d="M539.46,227.79 C513.98,242.52 475.15,265.28 442,286 C421.29,298.95 398.33,314.09 380.66,325.92 " fill="none" id="KonaCelo-&gt;KonaEspresso" style="stroke: #A80036; stroke-width: 1.0;"/><polygon fill="#A80036" points="376.28,328.86,385.9833,327.1728,380.4337,326.0766,381.5299,320.527,376.28,328.86" style="stroke: #A80036; stroke-width: 1.0;"/><text fill="#000000" font-family="sans-serif" font-size="13" lengthAdjust="spacingAndGlyphs" textLength="24" x="483" y="274.0669">fork</text><!--MD5=[985c716e33ada0ff27446afddbaeb96a]
link CeloKonaCelo to CeloKonaEspresso--><path d="M480.51,365.1 C454.43,384.92 411.5,417.57 383.74,438.67 " fill="none" id="CeloKonaCelo-&gt;CeloKonaEspresso" style="stroke: #A80036; stroke-width: 1.0;"/><polygon fill="#A80036" points="379.76,441.7,389.3421,439.4232,383.7358,438.6681,384.491,433.0618,379.76,441.7" style="stroke: #A80036; stroke-width: 1.0;"/><text fill="#000000" font-family="sans-serif" font-size="13" lengthAdjust="spacingAndGlyphs" textLength="24" x="439" y="408.0669">fork</text><!--MD5=[618bc08e75dc1382679aa4a556aa7a57]
link OPSuccintCelo to OPSuccintEspresso--><path d="M534.5,478.04 C476.74,498.76 379.56,533.62 319.6,555.13 " fill="none" id="OPSuccintCelo-&gt;OPSuccintEspresso" style="stroke: #A80036; stroke-width: 1.0;"/><polygon fill="#A80036" points="314.63,556.91,324.4539,557.6103,319.3319,555.2093,321.7328,550.0873,314.63,556.91" style="stroke: #A80036; stroke-width: 1.0;"/><text fill="#000000" font-family="sans-serif" font-size="13" lengthAdjust="spacingAndGlyphs" textLength="24" x="444" y="523.0669">fork</text><!--MD5=[db8b6796632c7c281dde26649e5188ca]
link OpIntegration to OPSuccintEspresso--><path d="M99,478.17 C101.62,493.01 107.57,514.06 121,527 C146.02,551.1 183.45,562.84 214.15,568.56 " fill="none" id="OpIntegration-&gt;OPSuccintEspresso" style="stroke: #A80036; stroke-width: 1.0;"/><polygon fill="#A80036" points="219.41,569.5,211.2439,563.9941,214.4864,568.6294,209.851,571.8719,219.41,569.5" style="stroke: #A80036; stroke-width: 1.0;"/><text fill="#000000" font-family="sans-serif" font-size="13" lengthAdjust="spacingAndGlyphs" textLength="94" x="122" y="523.0669">docker images</text><!--MD5=[f171108a3bdd2f3ded5583920441615e]
link KonaEspresso to CeloKonaEspresso--><path d="M351.94,365.34 C352.98,384.57 354.66,415.63 355.79,436.66 " fill="none" id="KonaEspresso-&gt;CeloKonaEspresso" style="stroke: #A80036; stroke-width: 1.0;"/><polygon fill="#A80036" points="356.07,441.78,359.5763,432.5764,355.799,436.7874,351.588,433.0101,356.07,441.78" style="stroke: #A80036; stroke-width: 1.0;"/><text fill="#000000" font-family="sans-serif" font-size="13" lengthAdjust="spacingAndGlyphs" textLength="49" x="355" y="408.0669">imports</text><!--MD5=[ac5820347774c9169946627a5d68dce0]
link CeloKonaEspresso to OPSuccintEspresso--><path d="M343.33,478.16 C327.47,498.07 301.31,530.93 284.11,552.52 " fill="none" id="CeloKonaEspresso-&gt;OPSuccintEspresso" style="stroke: #A80036; stroke-width: 1.0;"/><polygon fill="#A80036" points="280.8,556.68,289.5437,552.1471,283.9217,552.7743,283.2945,547.1523,280.8,556.68" style="stroke: #A80036; stroke-width: 1.0;"/><text fill="#000000" font-family="sans-serif" font-size="13" lengthAdjust="spacingAndGlyphs" textLength="49" x="318" y="523.0669">imports</text><!--MD5=[b956c7378ba0b7fb6d5e0189097b53cd]
link KonaEspresso to OPSuccintEspresso--><path d="M323.05,363.13 C297.09,378.94 260.11,406.41 244,442 C227.57,478.31 243.43,525.14 255.72,552.15 " fill="none" id="KonaEspresso-&gt;OPSuccintEspresso" style="stroke: #A80036; stroke-width: 1.0;"/><polygon fill="#A80036" points="257.97,556.96,257.7871,547.1128,255.8548,552.4294,250.5382,550.4972,257.97,556.96" style="stroke: #A80036; stroke-width: 1.0;"/><text fill="#000000" font-family="sans-serif" font-size="13" lengthAdjust="spacingAndGlyphs" textLength="49" x="245" y="464.5669">imports</text><!--MD5=[5fb5ad58ed7fbae041b42f51b0ebb7b2]
@startuml

package "External Dependencies" {
  [ Kona ] as KonaExternal
  [OP Succinct] as OPSuccintExternal
}

package "Celo" {
  [Kona] as KonaCelo
  [Celo Kona] as CeloKonaCelo
  [OP Succint] as OPSuccintCelo
}

package "Espresso" {
  [Kona] as KonaEspresso
  [Celo Kona] as CeloKonaEspresso
  [OP Succint] as OPSuccintEspresso
  [OP Integration] as OpIntegration
}


KonaCelo- -> CeloKonaCelo: imports

CeloKonaCelo- -> OPSuccintCelo : imports
KonaExternal- -> OPSuccintExternal : imports
KonaCelo  - -> OPSuccintCelo: imports

KonaExternal - -> KonaCelo: fork
OPSuccintExternal - -> OPSuccintCelo: fork
KonaCelo - -> KonaEspresso: fork
CeloKonaCelo - -> CeloKonaEspresso: fork
OPSuccintCelo - -> OPSuccintEspresso: fork

OpIntegration - -> OPSuccintEspresso : docker images
KonaEspresso   - -> CeloKonaEspresso: imports
CeloKonaEspresso  - -> OPSuccintEspresso : imports
KonaEspresso - -> OPSuccintEspresso : imports


@enduml

PlantUML version 1.2020.02(Sun Mar 01 07:22:07 CLST 2020)
(GPL source distribution)
Java Runtime: OpenJDK Runtime Environment
JVM: OpenJDK 64-Bit Server VM
Java Version: 11.0.29+7-post-Ubuntu-1ubuntu122.04
Operating System: Linux
Default Encoding: UTF-8
Language: es
Country: CL
--></g></svg>