<?xml version="1.0" encoding="UTF-8" standalone="no"?><svg xmlns="http://www.w3.org/2000/svg" xmlns:xlink="http://www.w3.org/1999/xlink" contentScriptType="application/ecmascript" contentStyleType="text/css" height="847px" preserveAspectRatio="none" style="width:797px;height:847px;" version="1.1" viewBox="0 0 797 847" width="797px" zoomAndPan="magnify"><defs><filter height="300%" id="fxl3bpidmugdk" width="300%" x="-1" y="-1"><feGaussianBlur result="blurOut" stdDeviation="2.0"/><feColorMatrix in="blurOut" result="blurOut2" type="matrix" values="0 0 0 0 0 0 0 0 0 0 0 0 0 0 0 0 0 0 .4 0"/><feOffset dx="4.0" dy="4.0" in="blurOut2" result="blurOut3"/><feBlend in="SourceGraphic" in2="blurOut3" mode="normal"/></filter></defs><g><!--MD5=[7f8134b78695bef3e790eae6add485b3]
cluster External Dependencies--><polygon fill="#FFFFFF" filter="url(#fxl3bpidmugdk)" points="577,24,765,24,772,46.2969,775,46.2969,775,245,577,245,577,24" style="stroke: #000000; stroke-width: 1.5;"/><line style="stroke: #000000; stroke-width: 1.5;" x1="577" x2="772" y1="46.2969" y2="46.2969"/><text fill="#000000" font-family="sans-serif" font-size="14" font-weight="bold" lengthAdjust="spacingAndGlyphs" textLength="182" x="581" y="38.9951">External Dependencies</text><!--MD5=[2326b82e06ebec4f4256631066555e2e]
cluster Celo--><polygon fill="#FFFFFF" filter="url(#fxl3bpidmugdk)" points="310,158,351,158,358,180.2969,553,180.2969,553,494,310,494,310,158" style="stroke: #000000; stroke-width: 1.5;"/><line style="stroke: #000000; stroke-width: 1.5;" x1="310" x2="358" y1="180.2969" y2="180.2969"/><text fill="#000000" font-family="sans-serif" font-size="14" font-weight="bold" lengthAdjust="spacingAndGlyphs" textLength="35" x="314" y="172.9951">Celo</text><!--MD5=[b61a95a0f47cab54156748d3697fd10e]
cluster Espresso--><polygon fill="#FFFFFF" filter="url(#fxl3bpidmugdk)" points="43,407,122,407,129,429.2969,286,429.2969,286,835,43,835,43,407" style="stroke: #000000; stroke-width: 1.5;"/><line style="stroke: #000000; stroke-width: 1.5;" x1="43" x2="129" y1="429.2969" y2="429.2969"/><text fill="#000000" font-family="sans-serif" font-size="14" font-weight="bold" lengthAdjust="spacingAndGlyphs" textLength="73" x="47" y="421.9951">Espresso</text><!--MD5=[62d64fdbb6d65435b204ea8b9f39a9eb]
entity KonaExternal--><rect fill="#FEFECE" filter="url(#fxl3bpidmugdk)" height="36.2969" style="stroke: #A80036; stroke-width: 1.5;" width="55" x="596.5" y="59"/><rect fill="#FEFECE" height="5" style="stroke: #A80036; stroke-width: 1.5;" width="10" x="591.5" y="64"/><rect fill="#FEFECE" height="5" style="stroke: #A80036; stroke-width: 1.5;" width="10" x="591.5" y="85.2969"/><text fill="#000000" font-family="sans-serif" font-size="14" lengthAdjust="spacingAndGlyphs" textLength="35" x="606.5" y="81.9951">Kona</text><!--MD5=[3c51b299848d9a7445b331f3dfe515c9]
entity OPSuccintExternal--><rect fill="#FEFECE" filter="url(#fxl3bpidmugdk)" height="36.2969" style="stroke: #A80036; stroke-width: 1.5;" width="103" x="593.5" y="193"/><rect fill="#FEFECE" height="5" style="stroke: #A80036; stroke-width: 1.5;" width="10" x="588.5" y="198"/><rect fill="#FEFECE" height="5" style="stroke: #A80036; stroke-width: 1.5;" width="10" x="588.5" y="219.2969"/><text fill="#000000" font-family="sans-serif" font-size="14" lengthAdjust="spacingAndGlyphs" textLength="83" x="603.5" y="215.9951">OP Succinct</text><!--MD5=[def1516f320ac207971a3c1c52649dc2]
entity KonaCelo--><rect fill="#FEFECE" filter="url(#fxl3bpidmugdk)" height="36.2969" style="stroke: #A80036; stroke-width: 1.5;" width="55" x="407.5" y="193"/><rect fill="#FEFECE" height="5" style="stroke: #A80036; stroke-width: 1.5;" width="10" x="402.5" y="198"/><rect fill="#FEFECE" height="5" style="stroke: #A80036; stroke-width: 1.5;" width="10" x="402.5" y="219.2969"/><text fill="#000000" font-family="sans-serif" font-size="14" lengthAdjust="spacingAndGlyphs" textLength="35" x="417.5" y="215.9951">Kona</text><!--MD5=[d366bb1aa52aa55ddc63036c365bcee6]
entity CeloKonaCelo--><rect fill="#FEFECE" filter="url(#fxl3bpidmugdk)" height="36.2969" style="stroke: #A80036; stroke-width: 1.5;" width="90" x="326" y="308"/><rect fill="#FEFECE" height="5" style="stroke: #A80036; stroke-width: 1.5;" width="10" x="321" y="313"/><rect fill="#FEFECE" height="5" style="stroke: #A80036; stroke-width: 1.5;" width="10" x="321" y="334.2969"/><text fill="#000000" font-family="sans-serif" font-size="14" lengthAdjust="spacingAndGlyphs" textLength="70" x="336" y="330.9951">Celo Kona</text><!--MD5=[3deccaa503357f6155bdf28d1b907c2f]
entity OPSuccintCelo--><rect fill="#FEFECE" filter="url(#fxl3bpidmugdk)" height="36.2969" style="stroke: #A80036; stroke-width: 1.5;" width="95" x="382.5" y="442"/><rect fill="#FEFECE" height="5" style="stroke: #A80036; stroke-width: 1.5;" width="10" x="377.5" y="447"/><rect fill="#FEFECE" height="5" style="stroke: #A80036; stroke-width: 1.5;" width="10" x="377.5" y="468.2969"/><text fill="#000000" font-family="sans-serif" font-size="14" lengthAdjust="spacingAndGlyphs" textLength="75" x="392.5" y="464.9951">OP Succint</text><!--MD5=[2df2aa6236fab0ad4f58ac5434203f6a]
entity KonaEspresso--><rect fill="#FEFECE" filter="url(#fxl3bpidmugdk)" height="36.2969" style="stroke: #A80036; stroke-width: 1.5;" width="55" x="76.5" y="783"/><rect fill="#FEFECE" height="5" style="stroke: #A80036; stroke-width: 1.5;" width="10" x="71.5" y="788"/><rect fill="#FEFECE" height="5" style="stroke: #A80036; stroke-width: 1.5;" width="10" x="71.5" y="809.2969"/><text fill="#000000" font-family="sans-serif" font-size="14" lengthAdjust="spacingAndGlyphs" textLength="35" x="86.5" y="805.9951">Kona</text><!--MD5=[602bd0455e93a0fc726b38ec90e95dd8]
entity CeloKonaEspresso--><rect fill="#FEFECE" filter="url(#fxl3bpidmugdk)" height="36.2969" style="stroke: #A80036; stroke-width: 1.5;" width="90" x="59" y="670"/><rect fill="#FEFECE" height="5" style="stroke: #A80036; stroke-width: 1.5;" width="10" x="54" y="675"/><rect fill="#FEFECE" height="5" style="stroke: #A80036; stroke-width: 1.5;" width="10" x="54" y="696.2969"/><text fill="#000000" font-family="sans-serif" font-size="14" lengthAdjust="spacingAndGlyphs" textLength="70" x="69" y="692.9951">Celo Kona</text><!--MD5=[2f12b53f055ef9d20cc47b1739a47e1e]
entity OPSuccintEspresso--><rect fill="#FEFECE" filter="url(#fxl3bpidmugdk)" height="36.2969" style="stroke: #A80036; stroke-width: 1.5;" width="95" x="162.5" y="557"/><rect fill="#FEFECE" height="5" style="stroke: #A80036; stroke-width: 1.5;" width="10" x="157.5" y="562"/><rect fill="#FEFECE" height="5" style="stroke: #A80036; stroke-width: 1.5;" width="10" x="157.5" y="583.2969"/><text fill="#000000" font-family="sans-serif" font-size="14" lengthAdjust="spacingAndGlyphs" textLength="75" x="172.5" y="579.9951">OP Succint</text><!--MD5=[e55448d9112c9dfdfeba4f6a3ae93896]
entity OpIntegration--><rect fill="#FEFECE" filter="url(#fxl3bpidmugdk)" height="36.2969" style="stroke: #A80036; stroke-width: 1.5;" width="118" x="152" y="442"/><rect fill="#FEFECE" height="5" style="stroke: #A80036; stroke-width: 1.5;" width="10" x="147" y="447"/><rect fill="#FEFECE" height="5" style="stroke: #A80036; stroke-width: 1.5;" width="10" x="147" y="468.2969"/><text fill="#000000" font-family="sans-serif" font-size="14" lengthAdjust="spacingAndGlyphs" textLength="98" x="162" y="464.9951">OP Integration</text><!--MD5=[21066575c8ec7a876eca28596f2ab270]
link KonaCelo to CeloKonaCelo--><path d="M425.28,229.16 C414.05,248.99 395.55,281.65 383.32,303.25 " fill="none" id="KonaCelo-&gt;CeloKonaCelo" style="stroke: #A80036; stroke-width: 1.0;"/><polygon fill="#A80036" points="380.81,307.68,388.7296,301.8251,383.2769,303.3309,381.7711,297.8781,380.81,307.68" style="stroke: #A80036; stroke-width: 1.0;"/><text fill="#000000" font-family="sans-serif" font-size="13" lengthAdjust="spacingAndGlyphs" textLength="49" x="407" y="274.0669">imports</text><!--MD5=[e0dfeaef64ecb7c1e271963eb506c9a1]
link CeloKonaCelo to OPSuccintCelo--><path d="M378.71,344.26 C389.36,368.07 408.55,411.02 420.2,437.08 " fill="none" id="CeloKonaCelo-&gt;OPSuccintCelo" style="stroke: #A80036; stroke-width: 1.0;"/><polygon fill="#A80036" points="422.28,441.74,422.2485,431.8912,420.2347,437.1775,414.9485,435.1636,422.28,441.74" style="stroke: #A80036; stroke-width: 1.0;"/><text fill="#000000" font-family="sans-serif" font-size="13" lengthAdjust="spacingAndGlyphs" textLength="49" x="399" y="387.0669">imports</text><!--MD5=[f27d00ce58544ee430219e46d3f296d2]
link KonaExternal to OPSuccintExternal--><path d="M626.75,95.26 C630.52,118.97 637.31,161.66 641.46,187.75 " fill="none" id="KonaExternal-&gt;OPSuccintExternal" style="stroke: #A80036; stroke-width: 1.0;"/><polygon fill="#A80036" points="642.25,192.74,644.7875,183.2236,641.4651,187.802,636.8867,184.4796,642.25,192.74" style="stroke: #A80036; stroke-width: 1.0;"/><text fill="#000000" font-family="sans-serif" font-size="13" lengthAdjust="spacingAndGlyphs" textLength="49" x="634" y="138.0669">imports</text><!--MD5=[cee36f56541e33dfe64da4015ab34033]
link KonaCelo to OPSuccintCelo--><path d="M448.66,229.04 C454.96,237.99 461.75,249.48 465,261 C472.14,286.34 493.39,231.52 457,391 C453.35,406.99 446.51,424.15 440.63,437.24 " fill="none" id="KonaCelo-&gt;OPSuccintCelo" style="stroke: #A80036; stroke-width: 1.0;"/><polygon fill="#A80036" points="438.52,441.86,445.8857,435.3219,440.589,437.3082,438.6028,432.0115,438.52,441.86" style="stroke: #A80036; stroke-width: 1.0;"/><text fill="#000000" font-family="sans-serif" font-size="13" lengthAdjust="spacingAndGlyphs" textLength="49" x="475" y="330.5669">imports</text><!--MD5=[ae80ee1bd90e50b9a58442a44dc34fb7]
link KonaExternal to KonaCelo--><path d="M599.29,95.26 C564.39,119.63 500.79,164.05 463.79,189.89 " fill="none" id="KonaExternal-&gt;KonaCelo" style="stroke: #A80036; stroke-width: 1.0;"/><polygon fill="#A80036" points="459.42,192.95,469.0865,191.0635,463.5155,190.0817,464.4973,184.5107,459.42,192.95" style="stroke: #A80036; stroke-width: 1.0;"/><text fill="#000000" font-family="sans-serif" font-size="13" lengthAdjust="spacingAndGlyphs" textLength="24" x="552" y="138.0669">fork</text><!--MD5=[ab7a25c2f2e270f9fe3ed4bef39032cc]
link OPSuccintExternal to OPSuccintCelo--><path d="M630.65,229.21 C609.48,254.53 568.55,303.22 533,344 C504.03,377.23 469.77,415.23 448.97,438.16 " fill="none" id="OPSuccintExternal-&gt;OPSuccintCelo" style="stroke: #A80036; stroke-width: 1.0;"/><polygon fill="#A80036" points="445.5,441.98,454.5184,438.0216,448.8676,438.2842,448.6051,432.6334,445.5,441.98" style="stroke: #A80036; stroke-width: 1.0;"/><text fill="#000000" font-family="sans-serif" font-size="13" lengthAdjust="spacingAndGlyphs" textLength="24" x="565" y="330.5669">fork</text><!--MD5=[54126c8adfc229cc273e93303989e70b]
link KonaCelo to KonaEspresso--><path d="M407.18,213.3 C312.12,218.51 6,241.72 6,325 C6,325 6,325 6,689 C6,729.63 43.35,762.4 71.94,781.53 " fill="none" id="KonaCelo-&gt;KonaEspresso" style="stroke: #A80036; stroke-width: 1.0;"/><polygon fill="#A80036" points="76.44,784.48,71.1176,776.1931,72.2622,781.733,66.7224,782.8776,76.44,784.48" style="stroke: #A80036; stroke-width: 1.0;"/><text fill="#000000" font-family="sans-serif" font-size="13" lengthAdjust="spacingAndGlyphs" textLength="24" x="7" y="523.0669">fork</text><!--MD5=[985c716e33ada0ff27446afddbaeb96a]
link CeloKonaCelo to CeloKonaEspresso--><path d="M325.66,326.87 C271.3,329.39 181.68,342.55 135,399 C70.09,477.49 88.49,612.06 99,664.84 " fill="none" id="CeloKonaCelo-&gt;CeloKonaEspresso" style="stroke: #A80036; stroke-width: 1.0;"/><polygon fill="#A80036" points="100.05,669.98,102.1641,660.3607,99.0474,665.0816,94.3266,661.9649,100.05,669.98" style="stroke: #A80036; stroke-width: 1.0;"/><text fill="#000000" font-family="sans-serif" font-size="13" lengthAdjust="spacingAndGlyphs" textLength="24" x="92" y="523.0669">fork</text><!--MD5=[618bc08e75dc1382679aa4a556aa7a57]
link OPSuccintCelo to OPSuccintEspresso--><path d="M397.43,478.06 C371.8,491.44 335.17,510.51 303,527 C285.19,536.13 265.41,546.14 248.69,554.57 " fill="none" id="OPSuccintCelo-&gt;OPSuccintEspresso" style="stroke: #A80036; stroke-width: 1.0;"/><polygon fill="#A80036" points="244.06,556.9,253.8981,556.4402,248.5293,554.6582,250.3113,549.2894,244.06,556.9" style="stroke: #A80036; stroke-width: 1.0;"/><text fill="#000000" font-family="sans-serif" font-size="13" lengthAdjust="spacingAndGlyphs" textLength="24" x="335" y="523.0669">fork</text><!--MD5=[db8b6796632c7c281dde26649e5188ca]
link OpIntegration to OPSuccintEspresso--><path d="M207.1,478.05 C204.49,491.35 201.76,510.31 203,527 C203.59,535.02 204.75,543.75 205.96,551.48 " fill="none" id="OpIntegration-&gt;OPSuccintEspresso" style="stroke: #A80036; stroke-width: 1.0;"/><polygon fill="#A80036" points="206.79,556.66,209.2963,547.1354,205.9889,551.7246,201.3997,548.4172,206.79,556.66" style="stroke: #A80036; stroke-width: 1.0;"/><text fill="#000000" font-family="sans-serif" font-size="13" lengthAdjust="spacingAndGlyphs" textLength="94" x="204" y="523.0669">docker images</text><!--MD5=[4736e88e8ee4acea9c79c52cfbd5687a]
link CeloKonaEspresso to KonaEspresso--><path d="M104,706.34 C104,725.57 104,756.63 104,777.66 " fill="none" id="CeloKonaEspresso-&gt;KonaEspresso" style="stroke: #A80036; stroke-width: 1.0;"/><polygon fill="#A80036" points="104,782.78,108,773.78,104,777.78,100,773.78,104,782.78" style="stroke: #A80036; stroke-width: 1.0;"/><text fill="#000000" font-family="sans-serif" font-size="13" lengthAdjust="spacingAndGlyphs" textLength="49" x="105" y="749.0669">imports</text><!--MD5=[75886f74fa009ed94746d5a9aaedde98]
link OPSuccintEspresso to CeloKonaEspresso--><path d="M190.12,593.34 C180.48,602 168.87,612.78 159,623 C145.74,636.73 131.73,653.06 121.17,665.79 " fill="none" id="OPSuccintEspresso-&gt;CeloKonaEspresso" style="stroke: #A80036; stroke-width: 1.0;"/><polygon fill="#A80036" points="117.73,669.96,126.5357,665.5486,120.9055,666.0979,120.3562,660.4677,117.73,669.96" style="stroke: #A80036; stroke-width: 1.0;"/><text fill="#000000" font-family="sans-serif" font-size="13" lengthAdjust="spacingAndGlyphs" textLength="49" x="160" y="636.0669">imports</text><!--MD5=[7a0a72aa6a80a7188b28fe43e5b60cc7]
link OPSuccintEspresso to KonaEspresso--><path d="M213.56,593.03 C215.69,606.04 217.37,624.33 214,640 C202.41,693.87 196.83,709.51 163,753 C155.19,763.04 144.82,772.23 134.94,779.76 " fill="none" id="OPSuccintEspresso-&gt;KonaEspresso" style="stroke: #A80036; stroke-width: 1.0;"/><polygon fill="#A80036" points="130.75,782.89,140.35,780.69,134.75,779.89,135.55,774.29,130.75,782.89" style="stroke: #A80036; stroke-width: 1.0;"/><text fill="#000000" font-family="sans-serif" font-size="13" lengthAdjust="spacingAndGlyphs" textLength="49" x="207" y="692.5669">imports</text><!--MD5=[cf4e3366a350260d1a642c4e492f0a48]
@startuml

package "External Dependencies" {
  [ Kona ] as KonaExternal
  [OP Succinct] as OPSuccintExternal
}

package "Celo" {
  [Kona] as KonaCelo
  [Celo Kona] as CeloKonaCelo
  [OP Succint] as OPSuccintCelo
}

package "Espresso" {
  [Kona] as KonaEspresso
  [Celo Kona] as CeloKonaEspresso
  [OP Succint] as OPSuccintEspresso
  [OP Integration] as OpIntegration
}


 KonaCelo- -> CeloKonaCelo: imports

 CeloKonaCelo- -> OPSuccintCelo : imports
 KonaExternal- -> OPSuccintExternal : imports
KonaCelo  - -> OPSuccintCelo: imports

KonaExternal - -> KonaCelo: fork
OPSuccintExternal - -> OPSuccintCelo: fork
KonaCelo - -> KonaEspresso: fork
CeloKonaCelo - -> CeloKonaEspresso: fork
OPSuccintCelo - -> OPSuccintEspresso: fork

OpIntegration - -> OPSuccintEspresso : docker images
CeloKonaEspresso  - -> KonaEspresso: imports
OPSuccintEspresso - -> CeloKonaEspresso: imports
OPSuccintEspresso - -> KonaEspresso: imports


@enduml

PlantUML version 1.2020.02(Sun Mar 01 07:22:07 CLST 2020)
(GPL source distribution)
Java Runtime: OpenJDK Runtime Environment
JVM: OpenJDK 64-Bit Server VM
Java Version: 11.0.29+7-post-Ubuntu-1ubuntu122.04
Operating System: Linux
Default Encoding: UTF-8
Language: es
Country: CL
--></g></svg>